<svg width="29" height="32" viewBox="0 0 29 32" fill="none" xmlns="http://www.w3.org/2000/svg">
<path d="M23.5618 11H5.43683C4.93632 11 4.53058 11.4477 4.53058 12V26C4.53058 26.5523 4.93632 27 5.43683 27H23.5618C24.0623 27 24.4681 26.5523 24.4681 26V12C24.4681 11.4477 24.0623 11 23.5618 11Z" stroke="black" stroke-width="2" stroke-linecap="round" stroke-linejoin="round"/>
<path d="M10.4212 11V6.5C10.4212 5.30653 10.8509 4.16193 11.6157 3.31802C12.3805 2.47411 13.4177 2 14.4993 2C15.5809 2 16.6182 2.47411 17.383 3.31802C18.1478 4.16193 18.5775 5.30653 18.5775 6.5V11" stroke="black" stroke-width="2" stroke-linecap="round" stroke-linejoin="round"/>
</svg>
