<svg width="369" height="750" viewBox="0 0 369 750" fill="none" xmlns="http://www.w3.org/2000/svg">
<circle cx="144.706" cy="366" r="65.1176" fill="url(#paint0_linear)"/>
<ellipse cx="144.706" cy="366" rx="39.7941" ry="39.7941" fill="url(#paint1_linear)"/>
<path d="M144.727 405.795C166.562 405.795 184.5 387.856 184.5 366.021C184.5 344.145 166.562 326.206 144.686 326.206C122.851 326.206 104.912 344.145 104.912 366.021C104.912 387.856 122.851 405.795 144.727 405.795ZM131.252 344.673C134.093 336.19 138.476 330.508 143.347 329.575V345.931C138.882 345.85 134.864 345.403 131.252 344.673ZM146.106 329.575C150.936 330.508 155.319 336.19 158.16 344.673C154.589 345.403 150.53 345.85 146.106 345.931V329.575ZM118.833 339.64C123.906 334.648 130.4 331.117 137.624 329.697C133.971 332.456 130.725 337.367 128.492 343.983C124.637 342.928 121.43 341.426 118.833 339.64ZM151.788 329.697C159.013 331.117 165.506 334.648 170.579 339.64C167.982 341.426 164.776 342.928 160.92 343.983C158.688 337.367 155.482 332.456 151.788 329.697ZM107.753 364.641C108.078 355.834 111.528 347.757 117.007 341.548C119.726 343.577 123.379 345.241 127.721 346.499C126.22 351.694 125.327 357.782 125.205 364.641H107.753ZM164.208 364.641C164.126 357.782 163.193 351.694 161.732 346.499C166.034 345.241 169.687 343.577 172.406 341.548C177.925 347.757 181.375 355.834 181.7 364.641H164.208ZM146.106 364.641V348.691C150.693 348.61 155.035 348.082 158.931 347.189C160.352 352.303 161.245 358.228 161.367 364.641H146.106ZM128.046 364.641C128.168 358.228 129.06 352.303 130.481 347.189C134.377 348.082 138.72 348.61 143.347 348.691V364.641H128.046ZM107.753 367.401H125.205C125.286 374.3 126.22 380.51 127.721 385.745C123.419 386.963 119.807 388.627 117.128 390.616C111.568 384.365 108.078 376.289 107.753 367.401ZM128.046 367.401H143.347V383.554C138.76 383.635 134.458 384.162 130.603 385.015C129.101 379.779 128.168 373.732 128.046 367.401ZM146.106 383.554V367.401H161.367C161.245 373.732 160.352 379.779 158.85 385.015C154.954 384.162 150.652 383.635 146.106 383.554ZM161.732 385.745C163.234 380.51 164.126 374.3 164.248 367.401H181.7C181.335 376.289 177.844 384.365 172.325 390.616C169.605 388.627 165.993 386.963 161.732 385.745ZM146.106 386.313C150.49 386.395 154.467 386.8 158.039 387.572C155.198 395.851 150.855 401.655 146.106 402.588V386.313ZM131.374 387.572C134.945 386.8 138.923 386.395 143.347 386.313V402.588C138.558 401.655 134.215 395.851 131.374 387.572ZM160.92 388.262C164.695 389.317 167.901 390.737 170.458 392.523C165.466 397.353 159.134 400.843 152.113 402.264C155.644 399.463 158.729 394.674 160.92 388.262ZM118.955 392.523C121.512 390.737 124.718 389.317 128.492 388.262C130.684 394.674 133.768 399.463 137.34 402.264C130.278 400.843 123.947 397.353 118.955 392.523Z" fill="white"/>
<circle cx="86.8238" cy="214.059" r="57.8823" fill="#E3E1DA"/>
<mask id="mask0" style="mask-type:alpha" maskUnits="userSpaceOnUse" x="28" y="156" width="117" height="116">
<circle cx="86.8238" cy="214.059" r="57.8823" fill="#E3E1DA"/>
</mask>
<g mask="url(#mask0)">
<rect x="94.0591" y="145.323" width="57.8823" height="57.8823" fill="#9DE07B"/>
<rect x="104.912" y="228.53" width="43.4118" height="43.4118" fill="#FFCBD5"/>
<g filter="url(#filter0_d)">
<path fill-rule="evenodd" clip-rule="evenodd" d="M104.912 156.177H68.7357V195.971H68.7356V232.147H68.7357V275.559H104.912V232.147H144.706V195.971H104.912V156.177Z" fill="white"/>
</g>
</g>
<circle cx="86.8237" cy="214.059" r="28.9412" fill="#0079DB"/>
<path d="M76.3277 228.743C76.5662 228.743 76.8047 228.648 77.0272 228.409L86.8044 218.68C86.8521 218.616 86.8998 218.584 86.9316 218.584C86.9793 218.584 87.0111 218.616 87.0747 218.68L96.836 228.409C97.0744 228.648 97.3129 228.743 97.5514 228.743C97.9647 228.743 98.2827 228.409 98.2827 227.948C98.2827 227.789 98.235 227.646 98.1873 227.471L87.8696 198.807C87.6788 198.283 87.3927 197.949 86.9316 197.949C86.4865 197.949 86.2003 198.283 86.0095 198.807L75.6918 227.471C75.6282 227.646 75.5964 227.789 75.5964 227.948C75.5964 228.409 75.9144 228.743 76.3277 228.743Z" fill="white"/>
<circle cx="238.765" cy="206.824" r="65.1176" fill="url(#paint2_linear)"/>
<circle cx="238.765" cy="206.824" r="43.4118" fill="url(#paint3_linear)"/>
<circle cx="238.765" cy="206.824" r="42.0551" stroke="white" stroke-opacity="0.1" stroke-width="2.71323"/>
<mask id="mask1" style="mask-type:alpha" maskUnits="userSpaceOnUse" x="173" y="141" width="131" height="131">
<circle cx="238.765" cy="206.824" r="65.1176" fill="url(#paint4_linear)"/>
</mask>
<g mask="url(#mask1)">
<path d="M238.765 208.18L196.469 131.871H281.06L238.765 208.18Z" fill="url(#paint5_linear)"/>
</g>
<circle cx="238.765" cy="206.824" r="18.9926" fill="#0079FF" stroke="white" stroke-width="5.42647"/>
<circle cx="238.765" cy="525.176" r="65.1176" fill="#332E35"/>
<circle cx="238.765" cy="525.176" r="58.3345" stroke="url(#paint6_angular)" stroke-width="13.5662"/>
<circle cx="238.765" cy="525.176" r="40.6985" stroke="url(#paint7_angular)" stroke-width="13.5662"/>
<g filter="url(#filter1_d)">
<circle cx="238.765" cy="466.842" r="6.78309" fill="#FF2C9D"/>
</g>
<g filter="url(#filter2_d)">
<circle cx="238.765" cy="484.478" r="6.78309" fill="#D8FF00"/>
</g>
<circle cx="238.765" cy="525.176" r="21.7059" stroke="url(#paint8_angular)" stroke-width="13.5662"/>
<g filter="url(#filter3_d)">
<circle cx="238.765" cy="503.471" r="6.78309" fill="#00FFA8"/>
</g>
<circle cx="133.853" cy="655.412" r="50.6471" fill="white"/>
<path fill-rule="evenodd" clip-rule="evenodd" d="M105.364 642.75H118.817C122.172 642.76 125.387 644.097 127.76 646.47C130.132 648.842 131.469 652.057 131.479 655.412V655.412C131.469 658.767 130.132 661.982 127.76 664.354C125.387 666.727 122.172 668.064 118.817 668.074H105.364C102.009 668.064 98.7942 666.727 96.4218 664.354C94.0494 661.982 92.7122 658.767 92.7024 655.412V655.412C92.7122 652.057 94.0494 648.842 96.4218 646.47C98.7942 644.097 102.009 642.76 105.364 642.75V642.75Z" fill="url(#paint9_linear)" fill-opacity="0.25"/>
<path fill-rule="evenodd" clip-rule="evenodd" d="M148.889 642.75H162.342C165.697 642.76 168.912 644.097 171.285 646.47C173.657 648.842 174.994 652.057 175.004 655.412V655.412C174.994 658.767 173.657 661.982 171.285 664.354C168.912 666.727 165.697 668.064 162.342 668.074H148.889C145.534 668.064 142.319 666.727 139.947 664.354C137.574 661.982 136.237 658.767 136.227 655.412C136.237 652.057 137.574 648.842 139.947 646.47C142.319 644.097 145.534 642.76 148.889 642.75V642.75Z" fill="url(#paint10_linear)" fill-opacity="0.25"/>
<path fill-rule="evenodd" clip-rule="evenodd" d="M121.191 640.376V626.923C121.201 623.568 122.538 620.353 124.911 617.981C127.283 615.608 130.498 614.271 133.853 614.261V614.261C137.208 614.271 140.423 615.608 142.796 617.981C145.168 620.353 146.505 623.568 146.515 626.923V640.376C146.505 643.731 145.168 646.946 142.796 649.319C140.423 651.691 137.208 653.028 133.853 653.038V653.038C130.498 653.028 127.283 651.691 124.911 649.318C122.538 646.946 121.201 643.731 121.191 640.376V640.376Z" fill="url(#paint11_linear)" fill-opacity="0.25"/>
<path fill-rule="evenodd" clip-rule="evenodd" d="M146.515 670.448V683.901C146.505 687.256 145.168 690.471 142.796 692.843C140.423 695.216 137.208 696.553 133.853 696.563V696.563C130.498 696.553 127.283 695.216 124.911 692.843C122.538 690.471 121.201 687.256 121.191 683.901V670.448C121.201 667.093 122.538 663.878 124.911 661.506C127.283 659.133 130.498 657.796 133.853 657.786V657.786C137.208 657.796 140.423 659.133 142.796 661.506C145.168 663.878 146.505 667.093 146.515 670.448Z" fill="url(#paint12_linear)" fill-opacity="0.25"/>
<path fill-rule="evenodd" clip-rule="evenodd" d="M114.227 653.671L104.731 644.175C102.374 641.795 101.051 638.582 101.051 635.232C101.051 631.883 102.374 628.669 104.731 626.29V626.29C107.11 623.933 110.324 622.61 113.673 622.61C117.023 622.61 120.237 623.933 122.616 626.29L132.112 635.786C134.47 638.165 135.792 641.379 135.792 644.729C135.792 648.078 134.47 651.292 132.112 653.671V653.671C130.953 654.872 129.564 655.828 128.028 656.481C126.491 657.133 124.839 657.469 123.17 657.469C121.501 657.469 119.848 657.133 118.312 656.481C116.776 655.828 115.386 654.872 114.227 653.671V653.671Z" fill="url(#paint13_linear)" fill-opacity="0.25"/>
<path fill-rule="evenodd" clip-rule="evenodd" d="M153.479 657.153L162.975 666.649C165.333 669.029 166.655 672.242 166.655 675.592C166.655 678.941 165.333 682.155 162.975 684.534V684.534C160.596 686.891 157.382 688.214 154.033 688.214C150.684 688.214 147.47 686.891 145.09 684.534L135.594 675.038C133.237 672.658 131.914 669.445 131.914 666.095C131.914 662.746 133.237 659.532 135.594 657.153V657.153C136.753 655.952 138.142 654.996 139.679 654.343C141.215 653.691 142.867 653.354 144.537 653.354C146.206 653.354 147.858 653.691 149.394 654.343C150.931 654.996 152.32 655.952 153.479 657.153V657.153Z" fill="url(#paint14_linear)" fill-opacity="0.25"/>
<path fill-rule="evenodd" clip-rule="evenodd" d="M135.594 635.786L145.09 626.29C147.47 623.933 150.684 622.61 154.033 622.61C157.382 622.61 160.596 623.933 162.975 626.29V626.29C165.333 628.669 166.655 631.883 166.655 635.232C166.655 638.582 165.333 641.795 162.975 644.175L153.479 653.671C151.1 656.028 147.886 657.351 144.537 657.351C141.187 657.351 137.973 656.028 135.594 653.671V653.671C134.393 652.512 133.437 651.123 132.785 649.586C132.132 648.05 131.796 646.398 131.796 644.729C131.796 643.059 132.132 641.407 132.785 639.871C133.437 638.334 134.393 636.945 135.594 635.786V635.786Z" fill="url(#paint15_linear)" fill-opacity="0.25"/>
<path fill-rule="evenodd" clip-rule="evenodd" d="M132.112 675.037L122.616 684.534C120.237 686.891 117.023 688.214 113.673 688.214C110.324 688.214 107.11 686.891 104.731 684.534C102.374 682.155 101.051 678.941 101.051 675.591C101.051 672.242 102.374 669.028 104.731 666.649L114.227 657.153C116.607 654.795 119.82 653.473 123.17 653.473C126.519 653.473 129.733 654.795 132.112 657.153C133.314 658.312 134.269 659.701 134.922 661.237C135.574 662.774 135.911 664.426 135.911 666.095C135.911 667.764 135.574 669.417 134.922 670.953C134.269 672.489 133.314 673.879 132.112 675.037V675.037Z" fill="url(#paint16_linear)" fill-opacity="0.25"/>
<g style="mix-blend-mode:multiply">
<path fill-rule="evenodd" clip-rule="evenodd" d="M105.364 642.75H118.817C122.172 642.76 125.387 644.097 127.76 646.47C130.132 648.842 131.469 652.057 131.479 655.412V655.412C131.469 658.767 130.132 661.982 127.76 664.354C125.387 666.727 122.172 668.064 118.817 668.074H105.364C102.009 668.064 98.7942 666.727 96.4218 664.354C94.0494 661.982 92.7122 658.767 92.7024 655.412V655.412C92.7122 652.057 94.0494 648.842 96.4218 646.47C98.7942 644.097 102.009 642.76 105.364 642.75V642.75Z" fill="#D783A6"/>
</g>
<g style="mix-blend-mode:multiply">
<path fill-rule="evenodd" clip-rule="evenodd" d="M148.889 642.75H162.342C165.697 642.76 168.912 644.097 171.285 646.47C173.657 648.842 174.994 652.057 175.004 655.412V655.412C174.994 658.767 173.657 661.982 171.285 664.354C168.912 666.727 165.697 668.064 162.342 668.074H148.889C145.534 668.064 142.319 666.727 139.947 664.354C137.574 661.982 136.237 658.767 136.227 655.412C136.237 652.057 137.574 648.842 139.947 646.47C142.319 644.097 145.534 642.76 148.889 642.75V642.75Z" fill="#A3D063"/>
</g>
<g style="mix-blend-mode:multiply">
<path fill-rule="evenodd" clip-rule="evenodd" d="M146.515 626.923V640.376C146.505 643.731 145.168 646.946 142.796 649.319C140.423 651.691 137.208 653.028 133.853 653.038V653.038C130.498 653.028 127.283 651.691 124.911 649.319C122.538 646.946 121.201 643.731 121.191 640.376V626.923C121.201 623.568 122.538 620.353 124.911 617.981C127.283 615.608 130.498 614.271 133.853 614.261V614.261C137.208 614.271 140.423 615.608 142.796 617.981C145.168 620.353 146.505 623.568 146.515 626.923V626.923Z" fill="#FBB230"/>
</g>
<g style="mix-blend-mode:multiply">
<path fill-rule="evenodd" clip-rule="evenodd" d="M146.515 670.448V683.901C146.505 687.256 145.168 690.471 142.796 692.843C140.423 695.216 137.208 696.553 133.853 696.563V696.563C130.498 696.553 127.283 695.216 124.911 692.843C122.538 690.471 121.201 687.256 121.191 683.901V670.448C121.201 667.093 122.538 663.878 124.911 661.506C127.283 659.133 130.498 657.796 133.853 657.786V657.786C137.208 657.796 140.423 659.133 142.796 661.506C145.168 663.878 146.505 667.093 146.515 670.448Z" fill="#79ABDB"/>
</g>
<g style="mix-blend-mode:multiply">
<path fill-rule="evenodd" clip-rule="evenodd" d="M122.616 626.29L132.112 635.786C134.47 638.165 135.792 641.379 135.792 644.729C135.792 648.078 134.47 651.292 132.112 653.671V653.671C129.733 656.028 126.519 657.351 123.17 657.351C119.82 657.351 116.607 656.028 114.227 653.671L104.731 644.175C102.374 641.795 101.051 638.582 101.051 635.232C101.051 631.883 102.374 628.669 104.731 626.29V626.29C107.11 623.933 110.324 622.61 113.673 622.61C117.023 622.61 120.237 623.933 122.616 626.29V626.29Z" fill="#F3775E"/>
</g>
<g style="mix-blend-mode:multiply">
<path fill-rule="evenodd" clip-rule="evenodd" d="M153.479 657.153L162.975 666.649C165.333 669.029 166.655 672.242 166.655 675.592C166.655 678.941 165.333 682.155 162.975 684.534V684.534C160.596 686.891 157.382 688.214 154.033 688.214C150.684 688.214 147.47 686.891 145.09 684.534L135.594 675.038C133.237 672.658 131.914 669.445 131.914 666.095C131.914 662.746 133.237 659.532 135.594 657.153V657.153C136.753 655.952 138.142 654.996 139.679 654.343C141.215 653.691 142.867 653.354 144.537 653.354C146.206 653.354 147.858 653.691 149.394 654.343C150.931 654.996 152.32 655.952 153.479 657.153V657.153Z" fill="#6CBFAA"/>
</g>
<g style="mix-blend-mode:multiply">
<path fill-rule="evenodd" clip-rule="evenodd" d="M162.975 644.175L153.479 653.671C151.1 656.028 147.886 657.351 144.537 657.351C141.187 657.351 137.973 656.028 135.594 653.671V653.671C133.237 651.292 131.914 648.078 131.914 644.729C131.914 641.379 133.237 638.165 135.594 635.786L145.09 626.29C147.47 623.933 150.684 622.61 154.033 622.61C157.382 622.61 160.596 623.933 162.975 626.29V626.29C165.333 628.669 166.655 631.883 166.655 635.232C166.655 638.582 165.333 641.795 162.975 644.175V644.175Z" fill="#EDE12C"/>
</g>
<g style="mix-blend-mode:multiply">
<path fill-rule="evenodd" clip-rule="evenodd" d="M132.112 675.037L122.616 684.534C120.237 686.891 117.023 688.214 113.673 688.214C110.324 688.214 107.11 686.891 104.731 684.534C102.374 682.155 101.051 678.941 101.051 675.591C101.051 672.242 102.374 669.028 104.731 666.649L114.227 657.153C116.607 654.795 119.82 653.473 123.17 653.473C126.519 653.473 129.733 654.795 132.112 657.153C133.314 658.312 134.269 659.701 134.922 661.237C135.574 662.774 135.911 664.426 135.911 666.095C135.911 667.764 135.574 669.417 134.922 670.953C134.269 672.489 133.314 673.879 132.112 675.037V675.037Z" fill="#AC8DC1"/>
</g>
<g style="mix-blend-mode:overlay">
<path style="mix-blend-mode:overlay" fill-rule="evenodd" clip-rule="evenodd" d="M105.364 642.75H118.817C122.172 642.76 125.387 644.097 127.76 646.47C130.132 648.842 131.469 652.057 131.479 655.412C131.469 658.767 130.132 661.982 127.76 664.354C125.387 666.727 122.172 668.064 118.817 668.074H105.364C102.009 668.064 98.7942 666.727 96.4218 664.354C94.0494 661.982 92.7122 658.767 92.7024 655.412V655.412C92.7122 652.057 94.0494 648.842 96.4218 646.47C98.7942 644.097 102.009 642.76 105.364 642.75V642.75Z" fill="url(#paint17_linear)" fill-opacity="0.25"/>
<path style="mix-blend-mode:overlay" fill-rule="evenodd" clip-rule="evenodd" d="M148.889 642.75H162.342C165.697 642.76 168.912 644.097 171.285 646.47C173.657 648.842 174.994 652.057 175.004 655.412V655.412C174.994 658.767 173.657 661.982 171.285 664.354C168.912 666.727 165.697 668.064 162.342 668.074H148.889C145.534 668.064 142.319 666.727 139.947 664.354C137.574 661.982 136.237 658.767 136.227 655.412V655.412C136.237 652.057 137.574 648.842 139.947 646.47C142.319 644.097 145.534 642.76 148.889 642.75V642.75Z" fill="url(#paint18_linear)" fill-opacity="0.25"/>
<path style="mix-blend-mode:overlay" fill-rule="evenodd" clip-rule="evenodd" d="M121.191 640.376V626.923C121.201 623.568 122.538 620.353 124.911 617.981C127.283 615.608 130.498 614.271 133.853 614.261V614.261C137.208 614.271 140.423 615.608 142.796 617.981C145.168 620.353 146.505 623.568 146.515 626.923V640.376C146.505 643.731 145.168 646.946 142.796 649.319C140.423 651.691 137.208 653.028 133.853 653.038V653.038C130.498 653.028 127.283 651.691 124.911 649.318C122.538 646.946 121.201 643.731 121.191 640.376V640.376Z" fill="url(#paint19_linear)" fill-opacity="0.25"/>
<path style="mix-blend-mode:overlay" fill-rule="evenodd" clip-rule="evenodd" d="M146.515 670.448V683.901C146.505 687.256 145.168 690.471 142.796 692.843C140.423 695.216 137.208 696.553 133.853 696.563C130.498 696.553 127.283 695.216 124.911 692.843C122.538 690.471 121.201 687.256 121.191 683.901V670.448C121.201 667.093 122.538 663.878 124.911 661.506C127.283 659.133 130.498 657.796 133.853 657.786V657.786C137.208 657.796 140.423 659.133 142.795 661.506C145.168 663.878 146.505 667.093 146.515 670.448V670.448Z" fill="url(#paint20_linear)" fill-opacity="0.25"/>
<path style="mix-blend-mode:overlay" fill-rule="evenodd" clip-rule="evenodd" d="M114.227 653.671L104.731 644.175C102.374 641.795 101.051 638.582 101.051 635.232C101.051 631.883 102.374 628.669 104.731 626.29V626.29C107.11 623.933 110.324 622.61 113.673 622.61C117.023 622.61 120.237 623.933 122.616 626.29L132.112 635.786C134.47 638.165 135.792 641.379 135.792 644.729C135.792 648.078 134.47 651.292 132.112 653.671V653.671C130.953 654.872 129.564 655.828 128.028 656.48C126.491 657.133 124.839 657.469 123.17 657.469C121.501 657.469 119.848 657.133 118.312 656.48C116.776 655.828 115.386 654.872 114.227 653.671V653.671Z" fill="url(#paint21_linear)" fill-opacity="0.25"/>
<path style="mix-blend-mode:overlay" fill-rule="evenodd" clip-rule="evenodd" d="M153.32 657.153L162.817 666.649C165.174 669.028 166.497 672.242 166.497 675.592C166.497 678.941 165.174 682.155 162.817 684.534V684.534C160.438 686.891 157.224 688.214 153.874 688.214C150.525 688.214 147.311 686.891 144.932 684.534L135.436 675.038C133.078 672.658 131.756 669.445 131.756 666.095C131.756 662.746 133.078 659.532 135.436 657.153V657.153C136.595 655.951 137.984 654.996 139.52 654.343C141.057 653.691 142.709 653.354 144.378 653.354C146.047 653.354 147.7 653.691 149.236 654.343C150.772 654.996 152.162 655.951 153.32 657.153V657.153Z" fill="url(#paint22_linear)" fill-opacity="0.25"/>
<path style="mix-blend-mode:overlay" fill-rule="evenodd" clip-rule="evenodd" d="M135.436 635.786L144.932 626.29C147.312 623.933 150.525 622.61 153.875 622.61C157.224 622.61 160.438 623.933 162.817 626.29V626.29C165.174 628.669 166.497 631.883 166.497 635.232C166.497 638.582 165.174 641.795 162.817 644.175L153.321 653.671C150.941 656.028 147.728 657.351 144.378 657.351C141.029 657.351 137.815 656.028 135.436 653.671V653.671C133.078 651.292 131.756 648.078 131.756 644.729C131.756 641.379 133.078 638.165 135.436 635.786V635.786Z" fill="url(#paint23_linear)" fill-opacity="0.25"/>
<path style="mix-blend-mode:overlay" fill-rule="evenodd" clip-rule="evenodd" d="M132.112 675.038L122.616 684.534C120.236 686.891 117.023 688.214 113.673 688.214C110.324 688.214 107.11 686.891 104.731 684.534C102.374 682.155 101.051 678.941 101.051 675.592C101.051 672.242 102.374 669.029 104.731 666.649L114.227 657.153C116.606 654.796 119.82 653.473 123.17 653.473C126.519 653.473 129.733 654.796 132.112 657.153V657.153C134.469 659.532 135.792 662.746 135.792 666.095C135.792 669.445 134.469 672.658 132.112 675.038V675.038Z" fill="url(#paint24_linear)" fill-opacity="0.25"/>
</g>
<g style="mix-blend-mode:darken">
<path fill-rule="evenodd" clip-rule="evenodd" d="M121.508 643.067C123.876 643.575 126.047 644.757 127.76 646.47C129.473 648.182 130.654 650.353 131.163 652.722C128.783 652.239 126.598 651.065 124.881 649.348C123.164 647.631 121.991 645.447 121.508 643.067V643.067Z" fill="#D783A6"/>
</g>
<g style="mix-blend-mode:darken">
<path fill-rule="evenodd" clip-rule="evenodd" d="M136.544 658.102C137.052 660.471 138.234 662.642 139.946 664.354C141.659 666.067 143.83 667.249 146.198 667.757C145.715 665.377 144.542 663.193 142.825 661.475C141.108 659.758 138.923 658.585 136.544 658.102V658.102ZM136.544 652.721C137.052 650.353 138.234 648.182 139.946 646.469C141.659 644.756 143.83 643.575 146.198 643.067C145.69 645.435 144.508 647.606 142.795 649.318C141.083 651.031 138.912 652.213 136.544 652.721V652.721ZM121.508 667.757C122.016 665.389 123.198 663.218 124.91 661.505C126.623 659.792 128.794 658.611 131.162 658.102C130.654 660.471 129.472 662.641 127.76 664.354C126.047 666.067 123.876 667.248 121.508 667.757V667.757ZM116.285 655.412C118.339 654.094 120.729 653.394 123.17 653.394C125.61 653.394 128 654.094 130.054 655.412C128 656.729 125.61 657.43 123.17 657.43C120.729 657.43 118.339 656.729 116.285 655.412V655.412ZM137.652 655.412C139.706 656.729 142.096 657.43 144.536 657.43C146.977 657.43 149.367 656.729 151.421 655.412C149.367 654.094 146.977 653.394 144.536 653.394C142.096 653.394 139.706 654.094 137.652 655.412V655.412ZM133.853 651.613C132.536 649.559 131.835 647.169 131.835 644.728C131.835 642.288 132.536 639.898 133.853 637.844C135.171 639.898 135.871 642.288 135.871 644.728C135.871 647.169 135.171 649.559 133.853 651.613V651.613ZM133.853 672.98C132.536 670.925 131.835 668.536 131.835 666.095C131.835 663.654 132.536 661.265 133.853 659.21C135.171 661.265 135.871 663.654 135.871 666.095C135.871 668.536 135.171 670.925 133.853 672.98V672.98Z" fill="#D783A6"/>
</g>
<circle cx="300.265" cy="662.647" r="57.8823" fill="url(#paint25_linear)"/>
<path d="M291.823 658.226C291.823 656.006 293.623 654.206 295.843 654.206H303.48C305.7 654.206 307.5 656.006 307.5 658.226V658.226C307.5 659.336 306.6 660.235 305.49 660.235H293.833C292.723 660.235 291.823 659.336 291.823 658.226V658.226Z" fill="#464646"/>
<path d="M298.781 636.493L310.367 626.772C312.152 625.274 314.814 625.507 316.313 627.292V627.292C317.811 629.078 317.578 631.74 315.793 633.238L301.89 644.904C300.098 646.408 297.484 646.409 295.691 644.905L281.795 633.257C280.009 631.759 279.775 629.096 281.274 627.311V627.311C282.772 625.525 285.433 625.293 287.218 626.791L298.781 636.493Z" fill="#464646"/>
<mask id="mask2" style="mask-type:alpha" maskUnits="userSpaceOnUse" x="242" y="604" width="117" height="117">
<circle cx="300.265" cy="662.647" r="57.8823" fill="#C4C4C4"/>
</mask>
<g mask="url(#mask2)">
<path fill-rule="evenodd" clip-rule="evenodd" d="M354.529 643.353H335.838C333.701 643.991 329.719 645.9 326.794 654.206C323.596 658.78 321.368 660.781 316.544 663.25H282.779C280.368 663.25 277.353 665.662 277.353 668.677V673.5H357.544V643.353L354.529 643.353ZM277.353 677.118V725.956L324.925 725.598C324.568 723.56 324.382 721.464 324.382 719.324C324.382 700.359 338.975 684.803 357.544 683.271V677.118H277.353ZM357.544 689.325C342.31 690.838 330.412 703.691 330.412 719.324C330.412 721.459 330.634 723.542 331.056 725.552L357.544 725.353V689.325Z" fill="#464646"/>
<path d="M335.838 643.353V642.75H335.75L335.666 642.775L335.838 643.353ZM354.529 643.353L354.53 642.75H354.529V643.353ZM326.794 654.206L327.288 654.551L327.336 654.484L327.363 654.406L326.794 654.206ZM316.544 663.25V663.853H316.69L316.819 663.787L316.544 663.25ZM277.353 673.5H276.75V674.103H277.353V673.5ZM357.544 673.5V674.103H358.147V673.5H357.544ZM357.544 643.353H358.147V642.75L357.544 642.75L357.544 643.353ZM277.353 725.956H276.75V726.563L277.358 726.559L277.353 725.956ZM277.353 677.118V676.515H276.75V677.118H277.353ZM324.925 725.598L324.929 726.201L325.641 726.196L325.518 725.494L324.925 725.598ZM357.544 683.271L357.594 683.872L358.147 683.826V683.271H357.544ZM357.544 677.118H358.147V676.515H357.544V677.118ZM357.544 689.325H358.147V688.66L357.485 688.725L357.544 689.325ZM331.056 725.552L330.466 725.676L330.567 726.159L331.06 726.155L331.056 725.552ZM357.544 725.353L357.549 725.956L358.147 725.951V725.353H357.544ZM335.838 643.956H354.529V642.75H335.838V643.956ZM327.363 654.406C328.802 650.32 330.485 647.852 332.033 646.335C333.577 644.823 335.013 644.228 336.011 643.931L335.666 642.775C334.526 643.116 332.903 643.795 331.19 645.473C329.482 647.146 327.712 649.786 326.225 654.006L327.363 654.406ZM316.819 663.787C319.256 662.539 321.067 661.395 322.679 659.969C324.288 658.544 325.676 656.857 327.288 654.551L326.3 653.86C324.714 656.129 323.389 657.73 321.879 659.066C320.371 660.401 318.656 661.492 316.269 662.713L316.819 663.787ZM282.779 663.853H316.544V662.647H282.779V663.853ZM277.956 668.677C277.956 667.376 278.608 666.17 279.572 665.275C280.542 664.374 281.758 663.853 282.779 663.853V662.647C281.389 662.647 279.892 663.332 278.752 664.391C277.605 665.456 276.75 666.963 276.75 668.677H277.956ZM277.956 673.5V668.677H276.75V673.5H277.956ZM357.544 672.897H277.353V674.103H357.544V672.897ZM356.941 643.353V673.5H358.147V643.353H356.941ZM354.529 643.956L357.544 643.956L357.544 642.75L354.53 642.75L354.529 643.956ZM277.956 725.956V677.118H276.75V725.956H277.956ZM324.92 724.995L277.348 725.353L277.358 726.559L324.929 726.201L324.92 724.995ZM323.779 719.324C323.779 721.499 323.968 723.63 324.331 725.702L325.518 725.494C325.168 723.491 324.985 721.429 324.985 719.324H323.779ZM357.495 682.67C338.615 684.228 323.779 700.043 323.779 719.324H324.985C324.985 700.676 339.335 685.378 357.594 683.872L357.495 682.67ZM356.941 677.118V683.271H358.147V677.118H356.941ZM277.353 677.721H357.544V676.515H277.353V677.721ZM357.485 688.725C341.945 690.268 329.809 703.378 329.809 719.324H331.015C331.015 704.004 342.675 691.408 357.604 689.925L357.485 688.725ZM329.809 719.324C329.809 721.501 330.035 723.626 330.466 725.676L331.646 725.428C331.232 723.459 331.015 721.417 331.015 719.324H329.809ZM357.54 724.75L331.051 724.949L331.06 726.155L357.549 725.956L357.54 724.75ZM356.941 689.325V725.353H358.147V689.325H356.941Z" fill="#464646"/>
</g>
<circle cx="321.97" cy="686.765" r="4.82353" fill="url(#paint26_radial)"/>
<circle cx="155.559" cy="76.5883" r="43.4118" fill="url(#paint27_linear)"/>
<ellipse cx="143.155" cy="70.3865" rx="15.5042" ry="15.5042" fill="url(#paint28_linear)"/>
<path fill-rule="evenodd" clip-rule="evenodd" d="M167.962 95.1934C167.962 95.1934 167.962 95.1934 167.962 95.1934C174.812 95.1934 180.366 89.6402 180.366 82.79C180.366 75.9399 174.812 70.3867 167.962 70.3867C167.832 70.3867 167.702 70.3887 167.573 70.3927C166.198 65.04 161.34 61.0842 155.559 61.0842C148.709 61.0842 143.155 66.6374 143.155 73.4876C143.155 74.5612 143.292 75.603 143.548 76.5965C143.418 76.5911 143.287 76.5884 143.156 76.5884C138.018 76.5884 133.853 80.7533 133.853 85.8909C133.853 91.0285 138.018 95.1934 143.155 95.1934V95.1936H167.962V95.1934Z" fill="url(#paint29_linear)"/>
<circle cx="311.118" cy="72.9707" r="57.8823" fill="white"/>
<path d="M293.988 50.059H296.626V35.3387H301.819V33.0659H288.783V35.3387H293.988V50.059Z" fill="#FF483E"/>
<path d="M306.829 50.3063C308.713 50.3063 309.973 49.4466 310.621 48.1983H310.68V50.059H313.235V37.6704H310.68V44.901C310.68 46.8323 309.526 48.1159 307.736 48.1159C305.969 48.1159 305.098 47.0796 305.098 45.2072V37.6704H302.554V45.7018C302.554 48.5516 304.108 50.3063 306.829 50.3063Z" fill="#FF483E"/>
<path d="M322.249 50.3063C325.251 50.3063 327.159 48.5163 327.56 46.5497L327.583 46.4201H325.169L325.134 46.5143C324.816 47.4446 323.815 48.2219 322.307 48.2219C320.282 48.2219 318.998 46.8558 318.951 44.5124H327.724V43.6527C327.724 39.9314 325.593 37.4349 322.119 37.4349C318.645 37.4349 316.408 40.0256 316.408 43.9V43.9118C316.408 47.8215 318.61 50.3063 322.249 50.3063ZM322.131 39.5193C323.791 39.5193 324.992 40.5674 325.204 42.7106H318.987C319.21 40.638 320.482 39.5193 322.131 39.5193Z" fill="#FF483E"/>
<path d="M290.87 107.941H297.017V56.9622H290.799L277.233 66.7128V73.1073L290.728 63.7099H290.87V107.941Z" fill="black"/>
<path d="M326.747 108.789C337.345 108.789 344.87 101.653 344.906 91.4429V91.3722C344.906 81.5862 337.84 74.4851 328.054 74.4851C323.108 74.4851 318.868 76.3222 316.466 79.7491H316.325L318.056 62.6147H342.009V56.9622H312.827L310.213 86.0376H315.83C316.501 84.8717 317.314 83.8825 318.232 83.0347C320.493 80.9856 323.461 79.9611 326.923 79.9611C333.671 79.9611 338.511 84.7658 338.546 91.4782V91.5488C338.546 98.4026 333.742 103.207 326.817 103.207C320.705 103.207 316.183 99.3565 315.547 94.3045L315.512 94.0218H309.259L309.294 94.4105C310.036 102.713 316.996 108.789 326.747 108.789Z" fill="black"/>
<circle cx="86.8238" cy="503.471" r="57.8823" fill="#3B99C9"/>
<mask id="mask3" style="mask-type:alpha" maskUnits="userSpaceOnUse" x="28" y="445" width="117" height="117">
<circle cx="86.8238" cy="503.471" r="57.8823" fill="#3B99C9"/>
</mask>
<g mask="url(#mask3)">
<g filter="url(#filter4_d)">
<rect x="28.9414" y="460.059" width="115.765" height="19.2941" fill="#FFB003"/>
</g>
<g filter="url(#filter5_d)">
<rect x="28.9414" y="478.147" width="115.765" height="18.0882" fill="#50BE3D"/>
</g>
<g filter="url(#filter6_d)">
<rect x="28.9414" y="495.03" width="115.765" height="38.5882" fill="#F26D5F"/>
</g>
<g filter="url(#filter7_d)">
<path d="M68.2261 516.734C65.481 513.665 61.559 511.912 57.442 511.912H28.9414V561.353H144.706V511.912H114.882C110.486 511.912 106.328 513.91 103.582 517.343L98.2796 523.971C91.1822 531.241 81.2595 530.638 74.162 523.368L68.2261 516.734Z" fill="#D9D6CC"/>
</g>
</g>
<circle cx="209.824" cy="735" r="14.4706" fill="#3D3D3D"/>
<path fill-rule="evenodd" clip-rule="evenodd" d="M210.728 727.085C211.255 726.899 211.632 726.396 211.632 725.805C211.632 725.056 211.025 724.449 210.276 724.449C209.527 724.449 208.919 725.056 208.919 725.805C208.919 726.396 209.297 726.899 209.824 727.085V743.518C209.297 743.705 208.919 744.207 208.919 744.798C208.919 745.547 209.527 746.155 210.276 746.155C211.025 746.155 211.632 745.547 211.632 744.798C211.632 744.207 211.255 743.705 210.728 743.518V727.085Z" fill="#2AAEF5"/>
<rect x="197.765" y="734.699" width="0.904412" height="1.20588" rx="0.452206" fill="#FC3D39"/>
<rect x="198.971" y="734.397" width="0.904412" height="1.80882" rx="0.452206" fill="#FC3D39"/>
<rect x="200.177" y="733.794" width="0.904412" height="3.01471" rx="0.452206" fill="#FC3D39"/>
<rect x="201.382" y="731.383" width="0.904412" height="7.83823" rx="0.452206" fill="#FC3D39"/>
<rect x="202.588" y="732.287" width="0.904412" height="6.02941" rx="0.452206" fill="#FC3D39"/>
<rect x="203.794" y="730.478" width="0.904412" height="9.34559" rx="0.452206" fill="#FC3D39"/>
<rect x="205" y="727.162" width="0.904412" height="16.2794" rx="0.452206" fill="#FC3D39"/>
<rect x="206.206" y="728.669" width="0.904412" height="13.2647" rx="0.452206" fill="#FC3D39"/>
<rect x="207.412" y="731.081" width="0.904412" height="8.74265" rx="0.452206" fill="#FC3D39"/>
<rect x="208.618" y="733.191" width="0.904412" height="4.22059" rx="0.452206" fill="#FC3D39"/>
<rect x="211.03" y="731.684" width="0.904412" height="7.23529" rx="0.452206" fill="#FDFDFD"/>
<rect x="212.235" y="733.493" width="0.904412" height="3.61765" rx="0.452206" fill="#FDFDFD"/>
<rect x="213.441" y="733.191" width="0.904412" height="4.22059" rx="0.452206" fill="#FDFDFD"/>
<rect x="214.647" y="733.794" width="0.904412" height="3.01471" rx="0.452206" fill="#FDFDFD"/>
<rect x="215.853" y="734.397" width="0.904412" height="1.80882" rx="0.452206" fill="#FDFDFD"/>
<rect x="217.059" y="734.397" width="0.904412" height="1.80882" rx="0.452206" fill="#FDFDFD"/>
<rect x="218.265" y="734.699" width="0.904412" height="1.20588" rx="0.452206" fill="#FDFDFD"/>
<rect x="219.772" y="734.699" width="0.904412" height="1.20588" rx="0.452206" fill="#FDFDFD"/>
<circle cx="224.294" cy="15.0883" r="14.4706" fill="url(#paint30_linear)"/>
<circle cx="224.294" cy="15.0882" r="9.64706" fill="#FF640D"/>
<g filter="url(#filter8_dd)">
<path fill-rule="evenodd" clip-rule="evenodd" d="M229.656 8.59997C228.306 7.49209 226.65 6.83454 224.918 6.71023V9.68254C224.918 10.0155 224.648 10.2855 224.315 10.2855C223.982 10.2855 223.712 10.0155 223.712 9.68254V5.46195H224.315V5.44116C226.551 5.44116 228.719 6.21671 230.448 7.63566C232.177 9.05462 233.36 11.0292 233.797 13.2229C234.233 15.4166 233.895 17.6938 232.841 19.6664C231.786 21.639 230.081 23.185 228.014 24.0409C225.948 24.8969 223.649 25.0098 221.508 24.3606C219.368 23.7113 217.519 22.3399 216.276 20.4802C215.033 18.6204 214.474 16.3873 214.693 14.1614C214.913 11.9355 215.897 9.8544 217.478 8.27281C217.722 8.02922 218.117 8.02923 218.36 8.27281C218.604 8.51639 218.604 8.91132 218.36 9.1549C216.983 10.5324 216.126 12.3449 215.935 14.2837C215.744 16.2224 216.231 18.1673 217.313 19.7871C218.396 21.4069 220.006 22.6013 221.87 23.1668C223.734 23.7323 225.737 23.6339 227.537 22.8884C229.337 22.1429 230.822 20.7964 231.741 19.0784C232.659 17.3603 232.953 15.3769 232.573 13.4663C232.193 11.5556 231.162 9.83583 229.656 8.59997ZM220.384 10.753C220.113 10.5928 219.809 10.9014 219.973 11.1696L223.099 16.2854C223.713 17.2896 225.112 17.4396 225.924 16.5883C226.72 15.7545 226.533 14.3971 225.541 13.8095L220.384 10.753Z" fill="white"/>
</g>
<circle cx="14.4706" cy="376.853" r="14.4706" fill="url(#paint31_linear)"/>
<path d="M7.23534 372.632C7.23534 371.3 8.31512 370.221 9.6471 370.221H19.2942C20.6261 370.221 21.7059 371.3 21.7059 372.632V374.441C21.7059 374.608 21.571 374.743 21.4045 374.743H19.8971C19.7306 374.743 19.5956 374.608 19.5956 374.441V373.838C19.5956 373.172 19.0557 372.632 18.3897 372.632H16.2795C15.6135 372.632 15.0736 373.172 15.0736 373.838V374.441C15.0736 374.608 14.9386 374.743 14.7721 374.743H13.8677C13.7012 374.743 13.5662 374.608 13.5662 374.441V373.838C13.5662 373.172 13.0263 372.632 12.3603 372.632H10.25C9.58405 372.632 9.04416 373.172 9.04416 373.838V374.441C9.04416 374.608 8.90919 374.743 8.74269 374.743H7.53681C7.37031 374.743 7.23534 374.608 7.23534 374.441V372.632Z" fill="white"/>
<path d="M7.83828 375.949C6.5063 375.949 5.42651 377.028 5.42651 378.36V381.978C5.42651 382.644 5.96641 383.184 6.6324 383.184C6.96539 383.184 7.23534 382.914 7.23534 382.581V381.978C7.23534 381.645 7.50528 381.375 7.83828 381.375H21.103C21.436 381.375 21.7059 381.645 21.7059 381.978V382.581C21.7059 382.914 21.9759 383.184 22.3089 383.184C22.9749 383.184 23.5147 382.644 23.5147 381.978V378.36C23.5147 377.028 22.435 375.949 21.103 375.949H7.83828Z" fill="white"/>
<circle cx="21.7059" cy="633.706" r="14.4706" fill="url(#paint32_linear)"/>
<path fill-rule="evenodd" clip-rule="evenodd" d="M22.5349 634.864C22.7717 634.862 23.0064 634.908 23.2254 634.998C23.4444 635.088 23.6434 635.22 23.8109 635.388C23.9783 635.555 24.1108 635.754 24.2008 635.973C24.2908 636.192 24.3364 636.427 24.3349 636.664C24.3359 636.906 24.2894 637.146 24.1982 637.37H13.0105C12.6782 637.37 12.3594 637.238 12.1244 637.003C11.8894 636.768 11.7573 636.449 11.7573 636.117C11.7573 635.785 11.8894 635.466 12.1244 635.231C12.3594 634.996 12.6782 634.864 13.0105 634.864H16.1294L20.1912 627.83L18.9803 625.75C18.9023 625.615 18.8515 625.466 18.831 625.312C18.8105 625.158 18.8205 625.001 18.8607 624.85C18.9008 624.7 18.9702 624.559 19.0649 624.435C19.1595 624.312 19.2776 624.208 19.4124 624.13C19.5472 624.052 19.696 624.002 19.8503 623.982C20.0046 623.961 20.1615 623.972 20.3118 624.012C20.4621 624.052 20.603 624.122 20.7264 624.217C20.8499 624.312 20.9534 624.43 21.031 624.565L21.554 625.47L22.0109 624.679C22.1771 624.392 22.4505 624.182 22.771 624.097C23.0915 624.011 23.4328 624.057 23.7198 624.223C24.0069 624.389 24.2161 624.663 24.3016 624.983C24.3871 625.303 24.3417 625.645 24.1755 625.932L19.0225 634.864H22.5349ZM23.4691 628.734L27.0067 634.864H30.0998C30.4322 634.864 30.751 634.996 30.986 635.231C31.221 635.466 31.353 635.785 31.353 636.117C31.353 636.449 31.221 636.768 30.986 637.003C30.751 637.238 30.4322 637.37 30.0998 637.37H28.4534L29.6895 639.512C29.8557 639.799 29.9011 640.14 29.8156 640.461C29.7302 640.781 29.5209 641.055 29.2338 641.221C28.9468 641.387 28.6055 641.432 28.285 641.347C27.9645 641.262 27.6911 641.052 27.5249 640.765L23.7653 634.226C23.6245 633.963 23.4992 633.723 23.3894 633.513L23.3893 633.513C23.2325 633.213 23.1072 632.974 23.0134 632.813C22.6389 632.175 22.481 631.433 22.5631 630.698C22.6453 629.963 22.9631 629.274 23.4691 628.734ZM15.631 640.742L16.8386 638.623C16.6784 638.344 16.4453 638.114 16.1643 637.958C15.8834 637.801 15.5651 637.724 15.2436 637.735C14.9354 637.732 14.6309 637.803 14.355 637.94L13.4663 639.489C13.384 639.631 13.3306 639.788 13.3089 639.951C13.2873 640.114 13.2979 640.279 13.3403 640.438C13.3826 640.597 13.4557 640.746 13.5556 640.876C13.6554 641.006 13.7799 641.116 13.922 641.198C14.0642 641.28 14.2211 641.334 14.3839 641.356C14.5467 641.377 14.7122 641.367 14.8709 641.324C15.0296 641.282 15.1784 641.209 15.3088 641.109C15.4392 641.009 15.5487 640.885 15.631 640.742Z" fill="white"/>
<circle cx="43.412" cy="94.6766" r="14.4706" fill="white"/>
<path fill-rule="evenodd" clip-rule="evenodd" d="M49.3792 88.3284V86.9478C49.3796 86.8237 49.429 86.7049 49.5167 86.6172C49.6044 86.5295 49.7232 86.4801 49.8472 86.4797H51.0173C51.1413 86.4801 51.2601 86.5295 51.3478 86.6172C51.4355 86.7049 51.4849 86.8237 51.4853 86.9478V90.0133L53.7786 91.8386C53.8356 91.8864 53.8722 91.9543 53.8809 92.0282C53.8896 92.1021 53.8698 92.1766 53.8254 92.2364C53.8013 92.2704 53.7698 92.2985 53.7334 92.3188C53.6969 92.339 53.6564 92.3508 53.6148 92.3534H51.7193V101.714C51.7182 102.086 51.5699 102.442 51.3069 102.705C51.0438 102.968 50.6873 103.117 50.3152 103.118H36.7427C36.3706 103.117 36.0141 102.968 35.7511 102.705C35.488 102.442 35.3397 102.086 35.3386 101.714V92.3534H33.4431C33.4059 92.3549 33.3687 92.3486 33.334 92.335C33.2992 92.3214 33.2677 92.3008 33.2413 92.2744C33.2149 92.248 33.1943 92.2165 33.1807 92.1818C33.1671 92.147 33.1608 92.1099 33.1623 92.0726C33.1621 92.0304 33.1727 91.9888 33.1932 91.952C33.2137 91.9151 33.2434 91.8841 33.2793 91.862L43.2481 83.929C43.3304 83.861 43.4339 83.8237 43.5407 83.8237C43.6474 83.8237 43.7509 83.861 43.8332 83.929L49.3792 88.3284Z" fill="#FA9013"/>
<path fill-rule="evenodd" clip-rule="evenodd" d="M43.8096 85.8712L50.2214 90.8556C50.2749 90.9041 50.3083 90.9709 50.315 91.0428V101.222C50.3147 101.346 50.2652 101.465 50.1776 101.553C50.0899 101.64 49.971 101.69 49.847 101.69H37.2105C37.0865 101.69 36.9676 101.64 36.8799 101.553C36.7922 101.465 36.7428 101.346 36.7425 101.222V91.1364C36.7406 91.0998 36.7483 91.0633 36.7647 91.0305C36.7811 90.9977 36.8057 90.9697 36.8361 90.9492L43.2479 85.8712C43.3257 85.8033 43.4255 85.7659 43.5287 85.7659C43.632 85.7659 43.7318 85.8033 43.8096 85.8712V85.8712Z" fill="#FFAE28"/>
<path fill-rule="evenodd" clip-rule="evenodd" d="M43.8097 88.0475L48.5835 91.5576C48.6139 91.5781 48.6385 91.6061 48.6549 91.6389C48.6713 91.6717 48.6789 91.7082 48.6771 91.7448V99.5842C48.6767 99.7082 48.6273 99.827 48.5396 99.9147C48.4519 100.002 48.3331 100.052 48.2091 100.052H38.8487C38.7246 100.052 38.6058 100.002 38.5181 99.9147C38.4304 99.827 38.381 99.7082 38.3806 99.5842V91.9788C38.3788 91.9422 38.3864 91.9057 38.4028 91.8729C38.4192 91.8401 38.4438 91.8121 38.4742 91.7916L43.248 88.0475C43.3305 87.9903 43.4285 87.9597 43.5289 87.9597C43.6292 87.9597 43.7272 87.9903 43.8097 88.0475V88.0475Z" fill="#FFC148"/>
<path fill-rule="evenodd" clip-rule="evenodd" d="M43.8095 90.1068L46.9453 92.4703C46.9757 92.4908 47.0003 92.5188 47.0167 92.5516C47.0331 92.5844 47.0407 92.6209 47.0389 92.6575V97.9461C47.0385 98.0701 46.9891 98.189 46.9014 98.2767C46.8137 98.3644 46.6949 98.4138 46.5709 98.4142H40.4866C40.3626 98.4138 40.2438 98.3644 40.1561 98.2767C40.0684 98.189 40.0189 98.0701 40.0186 97.9461V92.8213C40.0167 92.7847 40.0244 92.7482 40.0408 92.7154C40.0572 92.6826 40.0818 92.6546 40.1122 92.6341L43.2479 90.1302C43.3256 90.0644 43.423 90.0264 43.5247 90.0221C43.6264 90.0179 43.7267 90.0477 43.8095 90.1068Z" fill="#FFD361"/>
<path fill-rule="evenodd" clip-rule="evenodd" d="M43.6928 92.1427L45.3309 93.6638C45.3734 93.7081 45.3983 93.7663 45.4011 93.8276V96.5421C45.4029 96.5733 45.3982 96.6046 45.3871 96.6339C45.376 96.6631 45.3588 96.6897 45.3367 96.7118C45.3146 96.7339 45.288 96.7511 45.2588 96.7622C45.2295 96.7733 45.1983 96.778 45.167 96.7761H41.8909C41.8597 96.778 41.8284 96.7733 41.7992 96.7622C41.7699 96.7511 41.7434 96.7339 41.7212 96.7118C41.6991 96.6897 41.682 96.6631 41.6709 96.6339C41.6598 96.6046 41.655 96.5733 41.6569 96.5421V93.8276C41.656 93.7969 41.6619 93.7663 41.674 93.738C41.6861 93.7097 41.7042 93.6844 41.7271 93.6638L43.3652 92.1427C43.4129 92.1085 43.4702 92.0901 43.529 92.0901C43.5877 92.0901 43.645 92.1085 43.6928 92.1427V92.1427Z" fill="#FFE780"/>
<defs>
<filter id="filter0_d" x="61.5003" y="148.977" width="90.4413" height="133.853" filterUnits="userSpaceOnUse" color-interpolation-filters="sRGB">
<feFlood flood-opacity="0" result="BackgroundImageFix"/>
<feColorMatrix in="SourceAlpha" type="matrix" values="0 0 0 0 0 0 0 0 0 0 0 0 0 0 0 0 0 0 127 0" result="hardAlpha"/>
<feOffset dy="0.0361765"/>
<feGaussianBlur stdDeviation="3.61765"/>
<feColorMatrix type="matrix" values="0 0 0 0 0 0 0 0 0 0 0 0 0 0 0 0 0 0 0.1 0"/>
<feBlend mode="normal" in2="BackgroundImageFix" result="effect1_dropShadow"/>
<feBlend mode="normal" in="SourceGraphic" in2="effect1_dropShadow" result="shape"/>
</filter>
<filter id="filter1_d" x="231.981" y="455.311" width="24.4191" height="24.4191" filterUnits="userSpaceOnUse" color-interpolation-filters="sRGB">
<feFlood flood-opacity="0" result="BackgroundImageFix"/>
<feColorMatrix in="SourceAlpha" type="matrix" values="0 0 0 0 0 0 0 0 0 0 0 0 0 0 0 0 0 0 127 0" result="hardAlpha"/>
<feOffset dx="5.42647" dy="0.678309"/>
<feGaussianBlur stdDeviation="2.71323"/>
<feColorMatrix type="matrix" values="0 0 0 0 0 0 0 0 0 0 0 0 0 0 0 0 0 0 0.25 0"/>
<feBlend mode="normal" in2="BackgroundImageFix" result="effect1_dropShadow"/>
<feBlend mode="normal" in="SourceGraphic" in2="effect1_dropShadow" result="shape"/>
</filter>
<filter id="filter2_d" x="231.981" y="472.947" width="24.4191" height="24.4191" filterUnits="userSpaceOnUse" color-interpolation-filters="sRGB">
<feFlood flood-opacity="0" result="BackgroundImageFix"/>
<feColorMatrix in="SourceAlpha" type="matrix" values="0 0 0 0 0 0 0 0 0 0 0 0 0 0 0 0 0 0 127 0" result="hardAlpha"/>
<feOffset dx="5.42647" dy="0.678309"/>
<feGaussianBlur stdDeviation="2.71323"/>
<feColorMatrix type="matrix" values="0 0 0 0 0 0 0 0 0 0 0 0 0 0 0 0 0 0 0.25 0"/>
<feBlend mode="normal" in2="BackgroundImageFix" result="effect1_dropShadow"/>
<feBlend mode="normal" in="SourceGraphic" in2="effect1_dropShadow" result="shape"/>
</filter>
<filter id="filter3_d" x="231.981" y="491.939" width="24.4191" height="24.4191" filterUnits="userSpaceOnUse" color-interpolation-filters="sRGB">
<feFlood flood-opacity="0" result="BackgroundImageFix"/>
<feColorMatrix in="SourceAlpha" type="matrix" values="0 0 0 0 0 0 0 0 0 0 0 0 0 0 0 0 0 0 127 0" result="hardAlpha"/>
<feOffset dx="5.42647" dy="0.678309"/>
<feGaussianBlur stdDeviation="2.71323"/>
<feColorMatrix type="matrix" values="0 0 0 0 0 0 0 0 0 0 0 0 0 0 0 0 0 0 0.25 0"/>
<feBlend mode="normal" in2="BackgroundImageFix" result="effect1_dropShadow"/>
<feBlend mode="normal" in="SourceGraphic" in2="effect1_dropShadow" result="shape"/>
</filter>
<filter id="filter4_d" x="27.7355" y="458.733" width="118.176" height="21.706" filterUnits="userSpaceOnUse" color-interpolation-filters="sRGB">
<feFlood flood-opacity="0" result="BackgroundImageFix"/>
<feColorMatrix in="SourceAlpha" type="matrix" values="0 0 0 0 0 0 0 0 0 0 0 0 0 0 0 0 0 0 127 0" result="hardAlpha"/>
<feOffset dy="-0.120588"/>
<feGaussianBlur stdDeviation="0.602941"/>
<feColorMatrix type="matrix" values="0 0 0 0 0 0 0 0 0 0 0 0 0 0 0 0 0 0 0.25 0"/>
<feBlend mode="normal" in2="BackgroundImageFix" result="effect1_dropShadow"/>
<feBlend mode="normal" in="SourceGraphic" in2="effect1_dropShadow" result="shape"/>
</filter>
<filter id="filter5_d" x="27.7355" y="476.821" width="118.176" height="20.4999" filterUnits="userSpaceOnUse" color-interpolation-filters="sRGB">
<feFlood flood-opacity="0" result="BackgroundImageFix"/>
<feColorMatrix in="SourceAlpha" type="matrix" values="0 0 0 0 0 0 0 0 0 0 0 0 0 0 0 0 0 0 127 0" result="hardAlpha"/>
<feOffset dy="-0.120588"/>
<feGaussianBlur stdDeviation="0.602941"/>
<feColorMatrix type="matrix" values="0 0 0 0 0 0 0 0 0 0 0 0 0 0 0 0 0 0 0.25 0"/>
<feBlend mode="normal" in2="BackgroundImageFix" result="effect1_dropShadow"/>
<feBlend mode="normal" in="SourceGraphic" in2="effect1_dropShadow" result="shape"/>
</filter>
<filter id="filter6_d" x="27.7355" y="493.703" width="118.176" height="40.9999" filterUnits="userSpaceOnUse" color-interpolation-filters="sRGB">
<feFlood flood-opacity="0" result="BackgroundImageFix"/>
<feColorMatrix in="SourceAlpha" type="matrix" values="0 0 0 0 0 0 0 0 0 0 0 0 0 0 0 0 0 0 127 0" result="hardAlpha"/>
<feOffset dy="-0.120588"/>
<feGaussianBlur stdDeviation="0.602941"/>
<feColorMatrix type="matrix" values="0 0 0 0 0 0 0 0 0 0 0 0 0 0 0 0 0 0 0.25 0"/>
<feBlend mode="normal" in2="BackgroundImageFix" result="effect1_dropShadow"/>
<feBlend mode="normal" in="SourceGraphic" in2="effect1_dropShadow" result="shape"/>
</filter>
<filter id="filter7_d" x="27.7355" y="510.585" width="118.176" height="51.8529" filterUnits="userSpaceOnUse" color-interpolation-filters="sRGB">
<feFlood flood-opacity="0" result="BackgroundImageFix"/>
<feColorMatrix in="SourceAlpha" type="matrix" values="0 0 0 0 0 0 0 0 0 0 0 0 0 0 0 0 0 0 127 0" result="hardAlpha"/>
<feOffset dy="-0.120588"/>
<feGaussianBlur stdDeviation="0.602941"/>
<feColorMatrix type="matrix" values="0 0 0 0 0 0 0 0 0 0 0 0 0 0 0 0 0 0 0.25 0"/>
<feBlend mode="normal" in2="BackgroundImageFix" result="effect1_dropShadow"/>
<feBlend mode="normal" in="SourceGraphic" in2="effect1_dropShadow" result="shape"/>
</filter>
<filter id="filter8_dd" x="214.044" y="4.68749" width="20.5416" height="20.843" filterUnits="userSpaceOnUse" color-interpolation-filters="sRGB">
<feFlood flood-opacity="0" result="BackgroundImageFix"/>
<feColorMatrix in="SourceAlpha" type="matrix" values="0 0 0 0 0 0 0 0 0 0 0 0 0 0 0 0 0 0 127 0" result="hardAlpha"/>
<feOffset dy="-0.150735"/>
<feGaussianBlur stdDeviation="0.301471"/>
<feColorMatrix type="matrix" values="0 0 0 0 0 0 0 0 0 0 0 0 0 0 0 0 0 0 0.25 0"/>
<feBlend mode="normal" in2="BackgroundImageFix" result="effect1_dropShadow"/>
<feColorMatrix in="SourceAlpha" type="matrix" values="0 0 0 0 0 0 0 0 0 0 0 0 0 0 0 0 0 0 127 0" result="hardAlpha"/>
<feOffset dy="0.150735"/>
<feGaussianBlur stdDeviation="0.301471"/>
<feColorMatrix type="matrix" values="0 0 0 0 0 0 0 0 0 0 0 0 0 0 0 0 0 0 0.25 0"/>
<feBlend mode="normal" in2="effect1_dropShadow" result="effect2_dropShadow"/>
<feBlend mode="normal" in="SourceGraphic" in2="effect2_dropShadow" result="shape"/>
</filter>
<linearGradient id="paint0_linear" x1="144.706" y1="300.883" x2="159.177" y2="452.824" gradientUnits="userSpaceOnUse">
<stop stop-color="#FF9800"/>
<stop offset="0.467426" stop-color="#FE7731"/>
<stop offset="0.998698" stop-color="#FF9800"/>
</linearGradient>
<linearGradient id="paint1_linear" x1="182.692" y1="366" x2="104.912" y2="366" gradientUnits="userSpaceOnUse">
<stop stop-color="#FF7014"/>
<stop offset="0.498678" stop-color="#FF6D10"/>
<stop offset="1" stop-color="#FF5A14"/>
</linearGradient>
<linearGradient id="paint2_linear" x1="238.765" y1="141.706" x2="238.765" y2="271.941" gradientUnits="userSpaceOnUse">
<stop stop-color="#3BD567"/>
<stop offset="1" stop-color="#1EB851"/>
</linearGradient>
<linearGradient id="paint3_linear" x1="238.765" y1="163.412" x2="238.765" y2="250.235" gradientUnits="userSpaceOnUse">
<stop stop-color="#4CDD5A"/>
<stop offset="1" stop-color="#41CD5A"/>
</linearGradient>
<linearGradient id="paint4_linear" x1="238.765" y1="141.706" x2="238.765" y2="271.941" gradientUnits="userSpaceOnUse">
<stop stop-color="#3BD567"/>
<stop offset="1" stop-color="#1EB851"/>
</linearGradient>
<linearGradient id="paint5_linear" x1="238.765" y1="208.18" x2="238.765" y2="106.434" gradientUnits="userSpaceOnUse">
<stop offset="0.259084" stop-color="#0079FF"/>
<stop offset="0.582014" stop-color="#0079FF" stop-opacity="0"/>
</linearGradient>
<radialGradient id="paint6_angular" cx="0" cy="0" r="1" gradientUnits="userSpaceOnUse" gradientTransform="translate(238.765 525.176) rotate(-90) scale(56.2996)">
<stop stop-color="#FE271A"/>
<stop offset="1" stop-color="#FF2CA1"/>
</radialGradient>
<radialGradient id="paint7_angular" cx="0" cy="0" r="1" gradientUnits="userSpaceOnUse" gradientTransform="translate(238.765 525.176) rotate(-90) scale(37.307)">
<stop stop-color="#95FB00"/>
<stop offset="1" stop-color="#D8FF00"/>
</radialGradient>
<radialGradient id="paint8_angular" cx="0" cy="0" r="1" gradientUnits="userSpaceOnUse" gradientTransform="translate(238.765 525.176) rotate(-90) scale(28.489)">
<stop stop-color="#00D1D9"/>
<stop offset="1" stop-color="#00FFA8"/>
</radialGradient>
<linearGradient id="paint9_linear" x1="92.7077" y1="655.415" x2="131.471" y2="655.415" gradientUnits="userSpaceOnUse">
<stop stop-color="white" stop-opacity="0"/>
<stop offset="1"/>
</linearGradient>
<linearGradient id="paint10_linear" x1="-513444" y1="490969" x2="-515350" y2="490969" gradientUnits="userSpaceOnUse">
<stop stop-color="white" stop-opacity="0"/>
<stop offset="1"/>
</linearGradient>
<linearGradient id="paint11_linear" x1="-787055" y1="380549" x2="-787055" y2="381795" gradientUnits="userSpaceOnUse">
<stop stop-color="white" stop-opacity="0"/>
<stop offset="1"/>
</linearGradient>
<linearGradient id="paint12_linear" x1="-667650" y1="-317052" x2="-667650" y2="-318297" gradientUnits="userSpaceOnUse">
<stop stop-color="white" stop-opacity="0"/>
<stop offset="1"/>
</linearGradient>
<linearGradient id="paint13_linear" x1="-77347.7" y1="-844124" x2="-76139.8" y2="-845331" gradientUnits="userSpaceOnUse">
<stop stop-color="white" stop-opacity="0"/>
<stop offset="1"/>
</linearGradient>
<linearGradient id="paint14_linear" x1="142856" y1="794333" x2="141648" y2="795541" gradientUnits="userSpaceOnUse">
<stop stop-color="white" stop-opacity="0"/>
<stop offset="1"/>
</linearGradient>
<linearGradient id="paint15_linear" x1="-858294" y1="163236" x2="-859505" y2="162024" gradientUnits="userSpaceOnUse">
<stop stop-color="white" stop-opacity="0"/>
<stop offset="1"/>
</linearGradient>
<linearGradient id="paint16_linear" x1="748188" y1="-52048" x2="749400" y2="-50874.3" gradientUnits="userSpaceOnUse">
<stop stop-color="white" stop-opacity="0"/>
<stop offset="1"/>
</linearGradient>
<linearGradient id="paint17_linear" x1="-21478.9" y1="-31022.9" x2="-21401.1" y2="-31022.9" gradientUnits="userSpaceOnUse">
<stop stop-color="white" stop-opacity="0"/>
<stop offset="1"/>
</linearGradient>
<linearGradient id="paint18_linear" x1="-513446" y1="490969" x2="-515353" y2="490969" gradientUnits="userSpaceOnUse">
<stop stop-color="white" stop-opacity="0"/>
<stop offset="1"/>
</linearGradient>
<linearGradient id="paint19_linear" x1="-787054" y1="380549" x2="-787054" y2="381795" gradientUnits="userSpaceOnUse">
<stop stop-color="white" stop-opacity="0"/>
<stop offset="1"/>
</linearGradient>
<linearGradient id="paint20_linear" x1="-667650" y1="-317052" x2="-667650" y2="-318297" gradientUnits="userSpaceOnUse">
<stop stop-color="white" stop-opacity="0"/>
<stop offset="1"/>
</linearGradient>
<linearGradient id="paint21_linear" x1="-77346.8" y1="-844123" x2="-76138.8" y2="-845331" gradientUnits="userSpaceOnUse">
<stop stop-color="white" stop-opacity="0"/>
<stop offset="1"/>
</linearGradient>
<linearGradient id="paint22_linear" x1="142854" y1="794340" x2="141646" y2="795547" gradientUnits="userSpaceOnUse">
<stop stop-color="white" stop-opacity="0"/>
<stop offset="1"/>
</linearGradient>
<linearGradient id="paint23_linear" x1="-857099" y1="164422" x2="-858307" y2="163214" gradientUnits="userSpaceOnUse">
<stop stop-color="white" stop-opacity="0"/>
<stop offset="1"/>
</linearGradient>
<linearGradient id="paint24_linear" x1="747005" y1="-53229.2" x2="748213" y2="-52059.5" gradientUnits="userSpaceOnUse">
<stop stop-color="white" stop-opacity="0"/>
<stop offset="1"/>
</linearGradient>
<linearGradient id="paint25_linear" x1="300.265" y1="604.765" x2="300.265" y2="720.53" gradientUnits="userSpaceOnUse">
<stop stop-color="#D9DBDC"/>
<stop offset="1" stop-color="#8E9196"/>
</linearGradient>
<radialGradient id="paint26_radial" cx="0" cy="0" r="1" gradientUnits="userSpaceOnUse" gradientTransform="translate(321.971 686.765) rotate(90) scale(4.82353)">
<stop stop-color="#DAAF0E"/>
<stop offset="0.748688" stop-color="#DAC70E"/>
<stop offset="1" stop-color="#DAC70E" stop-opacity="0"/>
</radialGradient>
<linearGradient id="paint27_linear" x1="155.559" y1="33.1765" x2="155.559" y2="120" gradientUnits="userSpaceOnUse">
<stop stop-color="#1E65F7"/>
<stop offset="1" stop-color="#1AD5FD"/>
</linearGradient>
<linearGradient id="paint28_linear" x1="143.155" y1="54.8823" x2="143.155" y2="85.8907" gradientUnits="userSpaceOnUse">
<stop stop-color="#E1B828"/>
<stop offset="1" stop-color="#FFE400"/>
</linearGradient>
<linearGradient id="paint29_linear" x1="157.109" y1="61.0842" x2="157.109" y2="95.1935" gradientUnits="userSpaceOnUse">
<stop offset="0.248667" stop-color="white" stop-opacity="0.8"/>
<stop offset="0.77473" stop-color="white" stop-opacity="0.980243"/>
<stop offset="1" stop-color="white"/>
</linearGradient>
<linearGradient id="paint30_linear" x1="224.294" y1="0.617676" x2="224.294" y2="29.5589" gradientUnits="userSpaceOnUse">
<stop stop-color="#FE980D"/>
<stop offset="1" stop-color="#FF752E"/>
</linearGradient>
<linearGradient id="paint31_linear" x1="14.4706" y1="362.383" x2="14.4706" y2="391.324" gradientUnits="userSpaceOnUse">
<stop stop-color="#0ED7DA"/>
<stop offset="1" stop-color="#0AC1C6"/>
</linearGradient>
<linearGradient id="paint32_linear" x1="21.7057" y1="648.177" x2="21.7057" y2="619.235" gradientUnits="userSpaceOnUse">
<stop stop-color="#1D6FF2"/>
<stop offset="1" stop-color="#1AC8FC"/>
</linearGradient>
</defs>
</svg>
