<svg width="48" height="48" viewBox="0 0 48 48" fill="none" xmlns="http://www.w3.org/2000/svg">
<path d="M24 4C12.96 4 4 12.96 4 24C4 35.04 12.96 44 24 44C35.02 44 44 35.04 44 24C44 12.96 35.02 4 24 4ZM37.21 13.22C39.6714 16.2186 41.0334 19.9687 41.07 23.848C40.508 23.74 34.868 22.59 29.184 23.306C29.054 23.024 28.944 22.72 28.816 22.416C28.4621 21.5821 28.086 20.7578 27.688 19.944C33.978 17.384 36.842 13.696 37.21 13.22ZM24 6.95C28.34 6.95 32.308 8.578 35.324 11.246C35.02 11.678 32.438 15.128 26.364 17.406C23.566 12.266 20.464 8.056 19.986 7.406C21.3017 7.09841 22.6488 6.94538 24 6.95ZM16.734 8.556C19.0229 11.7286 21.1373 15.0235 23.068 18.426C15.084 20.552 8.034 20.506 7.276 20.506C7.82566 17.9203 8.96522 15.4964 10.6058 13.4236C12.2464 11.3507 14.3436 9.6849 16.734 8.556ZM6.906 24.02V23.5C7.646 23.52 15.93 23.63 24.456 21.07C24.956 22.024 25.41 23 25.844 23.976C25.626 24.042 25.388 24.106 25.172 24.172C16.364 27.012 11.678 34.778 11.288 35.43C8.46768 32.2989 6.90727 28.234 6.908 24.02H6.906ZM24 41.094C20.2029 41.1005 16.5133 39.8329 13.522 37.494C13.826 36.864 17.298 30.182 26.928 26.82C26.972 26.8 26.994 26.8 27.036 26.776C28.6607 30.9668 29.8816 35.3031 30.682 39.726C28.5716 40.6341 26.2974 41.0997 24 41.094ZM33.522 38.164C33.35 37.124 32.438 32.134 30.202 25.996C35.562 25.15 40.248 26.538 40.832 26.734C40.4672 29.0402 39.6296 31.246 38.3716 33.213C37.1136 35.18 35.4625 36.8656 33.522 38.164Z" fill="black"/>
</svg>
