<svg width="48" height="48" viewBox="0 0 48 48" fill="none" xmlns="http://www.w3.org/2000/svg">
<path d="M44.324 11.3119C42.7971 11.9872 41.1779 12.4308 39.52 12.6279C41.2675 11.5827 42.5754 9.93788 43.2 7.99985C41.56 8.97585 39.762 9.65985 37.888 10.0299C36.6292 8.68301 34.9607 7.78978 33.1419 7.48902C31.3231 7.18827 29.4559 7.49684 27.8305 8.36676C26.2052 9.23668 24.9128 10.6192 24.1542 12.2994C23.3957 13.9797 23.2135 15.8634 23.636 17.6579C20.3102 17.4912 17.0566 16.6269 14.0866 15.1212C11.1165 13.6155 8.49624 11.5019 6.39598 8.91785C5.65256 10.1948 5.26189 11.6463 5.26398 13.1239C5.26398 16.0239 6.73998 18.5859 8.98398 20.0859C7.656 20.044 6.35725 19.6854 5.19598 19.0399V19.1439C5.19638 21.0753 5.86472 22.9471 7.08768 24.442C8.31064 25.9369 10.0129 26.9628 11.906 27.3459C10.6732 27.6799 9.3806 27.7292 8.12598 27.4899C8.65972 29.1523 9.7 30.6063 11.1012 31.6481C12.5023 32.6899 14.1942 33.2674 15.94 33.2999C14.2049 34.6625 12.2183 35.6698 10.0937 36.2642C7.96915 36.8586 5.74824 37.0284 3.55798 36.7639C7.38138 39.2227 11.8322 40.5281 16.378 40.5239C31.764 40.5239 40.178 27.7779 40.178 16.7239C40.178 16.3639 40.168 15.9999 40.152 15.6439C41.7897 14.4602 43.2032 12.9939 44.326 11.3139L44.324 11.3119Z" fill="black"/>
</svg>
