<svg width="283" height="753" viewBox="0 0 283 753" fill="none" xmlns="http://www.w3.org/2000/svg">
<circle cx="65.1176" cy="195.353" r="65.1176" fill="url(#paint0_linear)"/>
<path d="M84.1105 156.011C84.1105 160.506 80.4662 164.151 75.9708 164.151C71.4753 164.151 67.8311 160.506 67.8311 156.011C67.8311 151.516 71.4753 147.871 75.9708 147.871C80.4662 147.871 84.1105 151.516 84.1105 156.011Z" fill="black"/>
<path d="M54.4904 222.678C55.5536 222.246 56.4285 221.369 56.82 220.195L63.5225 200.092L77.4562 211.34L60.7594 222.235C58.671 223.598 58.0828 226.395 59.4454 228.483C60.808 230.572 63.6055 231.16 65.6938 229.797L86.3154 216.342C87.0915 216.127 87.8101 215.676 88.3546 215.001C89.7411 213.284 89.4727 210.767 87.7551 209.381L71.9692 196.638L75.7281 187.751L77.4308 191.607C77.4791 192.155 77.6417 192.701 77.9285 193.212C79.0097 195.136 81.4463 195.82 83.3708 194.738L98.5901 186.188C100.515 185.107 101.198 182.67 100.117 180.746C99.0357 178.821 96.5991 178.138 94.6747 179.219L83.0267 185.763L75.2004 168.261C74.4281 167.147 73.0762 166.492 71.6388 166.677L51.1301 169.314C50.8744 169.347 50.6282 169.405 50.3934 169.485C48.2882 169.444 46.4935 171.056 46.3335 173.182L45.0684 189.994C44.9028 192.195 46.5529 194.114 48.7541 194.279C50.9553 194.445 52.874 192.795 53.0396 190.593L54.1008 176.492L60.9054 175.616L57.0734 194.162C56.874 194.459 56.7109 194.788 56.5922 195.144L48.8384 217.059C48.3069 217.276 48.3536 217.326 47.9352 217.773L34.0192 232.616C32.4635 234.275 32.5476 236.882 34.207 238.438C35.8664 239.993 38.4728 239.909 40.0285 238.25L53.9445 223.406C54.157 223.18 54.3389 222.935 54.4904 222.678Z" fill="black"/>
<circle cx="155.559" cy="658.412" r="50.6471" fill="white"/>
<mask id="path-4-inside-1" fill="white">
<path d="M175.56 674.836C178.175 676.876 182.007 676.427 183.535 673.483C186.56 667.656 187.783 661.008 186.967 654.4C185.903 645.791 181.462 637.956 174.622 632.621C167.782 627.285 159.102 624.885 150.493 625.949C141.883 627.013 134.049 631.454 128.713 638.294L138.184 645.681C141.56 641.353 146.517 638.543 151.966 637.87C157.414 637.196 162.906 638.715 167.235 642.091C171.563 645.468 174.373 650.425 175.046 655.873C175.471 659.313 175.022 662.77 173.784 665.941C172.578 669.031 172.944 672.796 175.56 674.836V674.836Z"/>
</mask>
<path d="M186.967 654.4L172.764 656.155L186.967 654.4ZM128.713 638.294L117.429 629.492L108.628 640.776L119.911 649.577L128.713 638.294ZM138.184 645.681L129.382 656.965L140.665 665.766L149.467 654.483L138.184 645.681ZM175.046 655.873L160.844 657.628L175.046 655.873ZM173.784 665.941L160.454 660.736L173.784 665.941ZM196.236 680.076C200.584 671.701 202.343 662.144 201.169 652.645L172.764 656.155C173.223 659.871 172.536 663.611 170.834 666.889L196.236 680.076ZM201.169 652.645C199.64 640.269 193.256 629.007 183.424 621.337L165.82 643.904C169.668 646.906 172.166 651.313 172.764 656.155L201.169 652.645ZM183.424 621.337C173.591 613.667 161.114 610.217 148.738 611.747L152.248 640.152C157.09 639.553 161.973 640.903 165.82 643.904L183.424 621.337ZM148.738 611.747C136.361 613.276 125.099 619.659 117.429 629.492L139.996 647.095C142.998 643.248 147.405 640.75 152.248 640.152L148.738 611.747ZM119.911 649.577L129.382 656.965L146.985 634.398L137.515 627.01L119.911 649.577ZM149.467 654.483C150.509 653.147 152.039 652.28 153.721 652.072L150.211 623.667C140.996 624.806 132.611 629.559 126.9 636.88L149.467 654.483ZM153.721 652.072C155.402 651.864 157.097 652.333 158.433 653.375L176.036 630.808C168.715 625.097 159.425 622.529 150.211 623.667L153.721 652.072ZM158.433 653.375C159.769 654.417 160.636 655.947 160.844 657.628L189.248 654.118C188.11 644.904 183.357 636.519 176.036 630.808L158.433 653.375ZM160.844 657.628C160.975 658.69 160.837 659.756 160.454 660.736L187.115 671.146C189.208 665.784 189.967 659.936 189.248 654.118L160.844 657.628ZM160.454 660.736C157.873 667.346 157.4 678.82 166.758 686.12L184.361 663.553C186.335 665.092 187.126 667.078 187.349 668.395C187.553 669.604 187.362 670.511 187.115 671.146L160.454 660.736ZM170.834 666.889C172.349 663.971 175.137 662.288 177.795 661.882C180.278 661.503 182.618 662.193 184.361 663.553L166.758 686.12C174.904 692.474 189.738 692.593 196.236 680.076L170.834 666.889Z" fill="url(#paint1_angular)" mask="url(#path-4-inside-1)"/>
<mask id="path-6-inside-2" fill="white">
<path d="M133.449 642.058C130.833 640.018 127.002 640.467 125.474 643.411C122.449 649.238 121.225 655.886 122.042 662.494C123.106 671.103 127.546 678.938 134.386 684.273C141.226 689.609 149.906 692.009 158.516 690.945C167.125 689.881 174.96 685.441 180.295 678.6L170.825 671.213C167.448 675.541 162.491 678.351 157.043 679.024C151.595 679.698 146.102 678.179 141.774 674.803C137.445 671.426 134.635 666.469 133.962 661.021C133.537 657.581 133.986 654.124 135.224 650.953C136.43 647.863 136.064 644.098 133.449 642.058V642.058Z"/>
</mask>
<path d="M122.042 662.494L136.244 660.739L122.042 662.494ZM180.295 678.6L191.579 687.402L200.381 676.118L189.097 667.317L180.295 678.6ZM170.825 671.213L179.626 659.929L168.343 651.128L159.541 662.411L170.825 671.213ZM133.962 661.021L148.165 659.266L133.962 661.021ZM135.224 650.953L148.554 656.158L135.224 650.953ZM112.773 636.818C108.425 645.193 106.666 654.75 107.839 664.249L136.244 660.739C135.785 657.023 136.473 653.283 138.175 650.005L112.773 636.818ZM107.839 664.249C109.369 676.625 115.752 687.887 125.585 695.557L143.188 672.99C139.34 669.988 136.843 665.582 136.244 660.739L107.839 664.249ZM125.585 695.557C135.417 703.227 147.894 706.677 160.271 705.147L156.761 676.742C151.918 677.341 147.036 675.991 143.188 672.99L125.585 695.557ZM160.271 705.147C172.647 703.618 183.909 697.235 191.579 687.402L169.012 669.799C166.011 673.646 161.604 676.144 156.761 676.742L160.271 705.147ZM189.097 667.317L179.626 659.929L162.023 682.496L171.494 689.884L189.097 667.317ZM159.541 662.411C158.499 663.747 156.969 664.614 155.288 664.822L158.798 693.227C168.013 692.088 176.398 687.335 182.108 680.014L159.541 662.411ZM155.288 664.822C153.606 665.03 151.911 664.561 150.575 663.519L132.972 686.086C140.293 691.797 149.583 694.365 158.798 693.227L155.288 664.822ZM150.575 663.519C149.24 662.477 148.372 660.947 148.165 659.266L119.76 662.776C120.899 671.99 125.651 680.375 132.972 686.086L150.575 663.519ZM148.165 659.266C148.034 658.204 148.172 657.138 148.554 656.158L121.894 645.748C119.8 651.11 119.041 656.958 119.76 662.776L148.165 659.266ZM148.554 656.158C151.135 649.549 151.609 638.074 142.25 630.774L124.647 653.341C122.674 651.802 121.882 649.816 121.659 648.499C121.455 647.29 121.646 646.383 121.894 645.748L148.554 656.158ZM138.175 650.005C136.66 652.923 133.871 654.606 131.214 655.012C128.73 655.391 126.39 654.701 124.647 653.341L142.25 630.774C134.104 624.42 119.271 624.301 112.773 636.818L138.175 650.005Z" fill="url(#paint2_angular)" mask="url(#path-6-inside-2)"/>
<circle cx="65.1176" cy="528.176" r="65.1176" fill="url(#paint3_linear)"/>
<path d="M40.2138 544.456L40.7119 555.3C40.7767 557.616 41.5136 559.262 42.4406 560.175C46.8197 564.486 50.7308 565.85 53.8662 565.874C57.0539 565.898 60.3121 564.544 63.3389 561.758C65.8165 559.478 69.8023 554.473 74.2653 548.313C78.6015 542.328 83.018 535.777 86.2832 530.827C88.8737 526.899 90.2975 522.209 90.4232 517.318L90.4597 515.896C90.8176 501.971 80.1822 490.479 66.9374 490.479H63.6848C50.5679 490.479 39.9833 501.758 40.1559 515.552L40.2138 526.82H34.7873L33.4333 515.646C33.2115 497.91 46.8203 483.408 63.6848 483.408H66.9374C83.9664 483.408 97.6405 498.183 97.1804 516.087L97.1439 517.509C96.9843 523.718 95.1734 529.754 91.8072 534.857C85.225 544.836 73.8851 561.449 67.7661 567.08C59.7297 574.475 48.5794 575.905 37.8458 565.336C35.29 562.82 34.0946 559.188 33.9917 555.507L34.7873 544.456H40.2138Z" fill="#6D6C2D"/>
<path d="M36.0497 545.813H38.918L39.3562 555.35C39.4302 557.909 40.2503 559.922 41.4888 561.141C46.0624 565.644 50.2956 567.203 53.8558 567.23C57.4572 567.258 61.0342 565.723 64.2576 562.756C66.8499 560.371 70.91 555.257 75.3639 549.109C79.7167 543.101 84.1455 536.531 87.4156 531.574C90.1537 527.423 91.6475 522.482 91.7794 517.353L91.8159 515.93C92.1916 501.311 81.0112 489.122 66.9374 489.122H63.6848C49.7488 489.122 38.6208 501.083 38.7993 515.564C38.7993 515.566 38.7993 515.568 38.7994 515.569L38.8501 525.463H35.9894L34.789 515.556C34.6137 498.543 47.6638 484.765 63.6848 484.765H66.9374C83.1374 484.765 96.2665 498.843 95.8242 516.052L95.7877 517.474C95.6343 523.444 93.8933 529.23 90.6747 534.11C87.3886 539.092 82.9204 545.721 78.5144 551.803C74.0833 557.919 69.7924 563.371 66.8475 566.081C63.0247 569.599 58.5466 571.624 53.8278 571.588C49.12 571.552 43.971 569.463 38.7976 564.37C36.5731 562.179 35.4583 558.949 35.3498 555.536L36.0497 545.813Z" stroke="black" stroke-opacity="0.2" stroke-width="2.71323"/>
<path d="M40.4558 544.456C42.8241 544.456 44.7439 546.376 44.7439 548.744V548.744C44.7963 550.674 45.5689 555.226 46.3183 555.987C49.8588 559.58 52.6014 558.68 55.1363 558.7C57.7137 558.721 60.5909 556.447 63.0381 554.126C65.0412 552.226 68.2638 548.055 71.8722 542.922C75.378 537.934 78.9488 532.475 81.5888 528.35C83.6832 525.077 84.8344 521.168 84.936 517.093L84.9656 515.907C85.2549 504.303 76.656 494.727 65.9475 494.727H63.3177C52.7126 494.727 44.1548 504.126 44.2943 515.621L44.2874 522.75C44.2852 524.998 42.4619 526.82 40.2136 526.82V526.82L38.8591 515.699C38.6797 500.92 49.6826 488.834 63.3177 488.834H65.9475C79.7156 488.834 90.7713 501.147 90.3993 516.066L90.3697 517.252C90.2407 522.426 88.7766 527.456 86.055 531.708C80.7332 540.024 71.6148 554.008 66.6676 558.7C60.1701 564.863 53.0885 570.899 44.4102 562.092C42.3439 559.995 40.2968 559.054 40.2136 555.987V544.456H40.4558Z" fill="#BCB349"/>
<path d="M41.1279 525.627L39.9102 515.629C39.7657 501.379 50.3654 489.886 63.3177 489.886H65.9475C79.0433 489.886 89.7072 501.627 89.3478 516.04L89.3183 517.226C89.1937 522.221 87.7804 527.061 85.1691 531.141C82.5097 535.297 78.9086 540.858 75.3574 545.962C71.7864 551.096 68.3274 555.676 65.9438 557.937C62.6637 561.048 59.4365 563.915 56.0349 565.008C54.373 565.542 52.6867 565.644 50.9285 565.134C49.1588 564.62 47.2386 563.464 45.1594 561.354C44.6642 560.851 44.1702 560.412 43.728 560.018C43.6828 559.978 43.6382 559.938 43.5941 559.899C43.1073 559.466 42.6991 559.093 42.3554 558.706C41.7129 557.981 41.3018 557.211 41.2653 555.972V545.61C42.661 545.969 43.6921 547.236 43.6921 548.744H44.7439L43.6925 548.772C43.7209 549.818 43.9381 551.502 44.2381 553.009C44.389 553.767 44.5662 554.509 44.7608 555.124C44.8579 555.43 44.965 555.723 45.083 555.978C45.192 556.214 45.347 556.5 45.5691 556.725C47.4835 558.668 49.2548 559.458 50.9414 559.723C51.7623 559.851 52.5315 559.851 53.2269 559.824C53.4834 559.814 53.7191 559.802 53.9431 559.79C54.3592 559.769 54.7348 559.749 55.1281 559.752C56.7131 559.764 58.2833 559.079 59.7 558.179C61.1321 557.269 62.5205 556.067 63.7619 554.889C65.8526 552.906 69.1314 548.65 72.7327 543.527C76.251 538.521 79.8311 533.048 82.4747 528.917C84.6794 525.472 85.8814 521.373 85.9875 517.119L86.017 515.933C86.319 503.823 77.3284 493.675 65.9475 493.675H63.3177C52.0492 493.675 43.1005 503.632 43.2425 515.627L43.2356 522.749C43.2343 524.098 42.349 525.24 41.1279 525.627Z" stroke="black" stroke-opacity="0.1" stroke-width="2.10359"/>
<path d="M35.5087 544.456L35.9478 559.384C36.0262 562.051 36.9184 563.945 38.0407 564.996C43.3424 569.96 48.0777 571.529 51.8737 571.557C55.7331 571.585 59.6778 570.026 63.3424 566.819C66.3419 564.194 71.1676 558.433 76.571 551.342C81.8208 544.452 87.1679 536.91 91.1211 531.212C94.2574 526.691 95.9812 521.291 96.1334 515.661L96.1776 514.023C96.6109 497.994 83.7346 484.765 67.6991 484.765H63.7611C47.8805 484.765 35.0656 497.749 35.2746 513.628L35.4481 526.82V526.82C30.9351 526.82 27.26 523.193 27.2006 518.68L27.1356 513.736C26.8669 493.319 43.3431 476.625 63.7611 476.625H67.6991C88.3161 476.625 104.871 493.634 104.314 514.243L104.27 515.881C104.077 523.028 101.884 529.976 97.809 535.851C89.84 547.338 76.1106 566.463 68.7024 572.945C58.9727 581.458 45.4729 583.104 32.4777 570.938C29.3835 568.041 27.9362 563.86 27.8116 559.623L27.6049 552.596C27.4738 548.139 31.0506 544.456 35.5087 544.456V544.456Z" fill="black"/>
<circle cx="141.088" cy="65.1178" r="50.6471" fill="#1E265A"/>
<path d="M173.058 84.8405L150.951 102.739C148.298 104.887 144.987 106.06 141.573 106.06C138.159 106.06 134.849 104.887 132.196 102.739L110.088 84.8405C109.225 84.1422 108.529 83.2596 108.05 82.2574C107.572 81.2553 107.324 80.1588 107.324 79.0483C107.324 77.9378 107.572 76.8414 108.05 75.8392C108.529 74.837 109.225 73.9545 110.088 73.2561L132.196 55.3487C134.849 53.2 138.159 52.0276 141.573 52.0276C144.987 52.0276 148.298 53.2 150.951 55.3487L173.058 73.2561C173.921 73.9545 174.618 74.837 175.096 75.8392C175.574 76.8414 175.823 77.9378 175.823 79.0483C175.823 80.1588 175.574 81.2553 175.096 82.2574C174.618 83.2596 173.921 84.1422 173.058 84.8405V84.8405Z" fill="url(#paint4_radial)"/>
<path d="M110.088 73.2561L132.196 55.3487C134.849 53.2 138.159 52.0276 141.573 52.0276C144.987 52.0276 148.298 53.2 150.951 55.3487L173.058 73.2561C173.921 73.9545 174.618 74.837 175.096 75.8392C175.574 76.8414 175.823 77.9378 175.823 79.0483C175.823 80.1588 175.574 81.2553 175.096 82.2574C174.618 83.2596 173.921 84.1422 173.058 84.8405L150.951 102.739C148.298 104.887 144.987 106.06 141.573 106.06C138.159 106.06 134.849 104.887 132.196 102.739L110.088 84.8405C109.225 84.1422 108.529 83.2596 108.05 82.2574C107.572 81.2553 107.324 80.1588 107.324 79.0483C107.324 77.9378 107.572 76.8414 108.05 75.8392C108.529 74.837 109.225 73.9545 110.088 73.2561V73.2561Z" fill="url(#paint5_radial)"/>
<path d="M110.088 46.2507L132.196 28.3433C134.849 26.1946 138.159 25.0222 141.573 25.0222C144.987 25.0222 148.298 26.1946 150.951 28.3433L173.058 46.2507C173.921 46.9491 174.618 47.8317 175.096 48.8338C175.574 49.836 175.823 50.9325 175.823 52.0429C175.823 53.1534 175.574 54.2499 175.096 55.2521C174.618 56.2542 173.921 57.1368 173.058 57.8352L150.951 75.7333C148.298 77.8819 144.987 79.0544 141.573 79.0544C138.159 79.0544 134.849 77.8819 132.196 75.7333L110.088 57.8352C109.225 57.1368 108.529 56.2542 108.05 55.2521C107.572 54.2499 107.324 53.1534 107.324 52.0429C107.324 50.9325 107.572 49.836 108.05 48.8338C108.529 47.8317 109.225 46.9491 110.088 46.2507V46.2507Z" fill="url(#paint6_radial)"/>
<path d="M173.058 57.8352L150.951 75.7333C148.298 77.8819 144.987 79.0544 141.573 79.0544C138.159 79.0544 134.849 77.8819 132.196 75.7333L110.088 57.8352C109.225 57.1368 108.529 56.2542 108.05 55.2521C107.572 54.2499 107.324 53.1534 107.324 52.0429C107.324 50.9325 107.572 49.836 108.05 48.8338C108.529 47.8317 109.225 46.9491 110.088 46.2507L132.196 28.3433C134.849 26.1946 138.159 25.0222 141.573 25.0222C144.987 25.0222 148.298 26.1946 150.951 28.3433L173.058 46.2507C173.921 46.9491 174.618 47.8317 175.096 48.8338C175.574 49.836 175.823 50.9325 175.823 52.0429C175.823 53.1534 175.574 54.2499 175.096 55.2521C174.618 56.2542 173.921 57.1368 173.058 57.8352Z" fill="url(#paint7_radial)"/>
<circle cx="217.059" cy="217.059" r="57.8823" fill="url(#paint8_linear)"/>
<path fill-rule="evenodd" clip-rule="evenodd" d="M238.078 186.912C247.772 186.912 252.817 190.364 255.883 192.697C256.567 193.21 257.118 193.863 257.495 194.606C257.872 195.35 258.065 196.164 258.059 196.988V242.426C258.033 242.769 257.894 243.095 257.663 243.359C257.537 243.486 257.383 243.584 257.212 243.649C257.041 243.713 256.858 243.742 256.674 243.733C256.505 243.741 256.336 243.712 256.182 243.647C256.027 243.582 255.891 243.483 255.784 243.359C252.718 240.934 246.684 237.761 237.782 237.761C222.945 237.761 218.592 250.824 218.592 250.824V201.374C218.599 198.836 219.504 196.373 221.164 194.376C223.934 190.924 228.978 186.912 238.078 186.912ZM195.941 186.912C205.041 186.912 210.086 190.924 212.954 194.376C214.615 196.373 215.52 198.836 215.526 201.374V250.824C215.526 250.824 211.174 237.761 196.337 237.761C187.435 237.761 181.401 240.934 178.334 243.359C178.058 243.522 177.758 243.648 177.444 243.733C177.261 243.737 177.079 243.706 176.909 243.642C176.739 243.578 176.585 243.482 176.455 243.359C176.326 243.237 176.224 243.092 176.156 242.931C176.088 242.771 176.055 242.599 176.059 242.426V196.988C176.064 196.166 176.262 195.355 176.638 194.613C177.014 193.871 177.56 193.216 178.236 192.697C181.203 190.364 186.248 186.912 195.941 186.912Z" fill="white"/>
<circle cx="217.059" cy="506.471" r="57.8823" fill="#585455"/>
<circle cx="217.059" cy="506.471" r="48.2353" fill="#444040"/>
<circle cx="217.059" cy="506.471" r="30.1471" stroke="#FF530A" stroke-width="14.4706"/>
<path fill-rule="evenodd" clip-rule="evenodd" d="M218.912 454.28C217.948 453.123 216.17 453.123 215.206 454.28L211.309 458.956C211.129 459.173 211.03 459.446 211.03 459.728L211.03 491.846C205.365 494.208 201.383 499.8 201.383 506.321C201.383 514.979 208.401 521.998 217.059 521.998C225.717 521.998 232.736 514.979 232.736 506.321C232.736 499.8 228.754 494.208 223.088 491.846V459.728C223.088 459.446 222.99 459.173 222.809 458.956L218.912 454.28ZM217.059 513.556C221.055 513.556 224.294 510.317 224.294 506.321C224.294 502.325 221.055 499.086 217.059 499.086C213.063 499.086 209.824 502.325 209.824 506.321C209.824 510.317 213.063 513.556 217.059 513.556ZM217.059 458.086C215.727 458.086 214.647 459.166 214.647 460.498V479.792C214.647 481.124 215.727 482.204 217.059 482.204C218.391 482.204 219.471 481.124 219.471 479.792V460.498C219.471 459.166 218.391 458.086 217.059 458.086Z" fill="#EC2617"/>
<g clip-path="url(#clip0)">
<path fill-rule="evenodd" clip-rule="evenodd" d="M215.206 558.512C216.171 559.669 217.948 559.669 218.912 558.512L222.809 553.836C222.99 553.619 223.089 553.346 223.089 553.064L223.089 520.946C228.754 518.583 232.736 512.992 232.736 506.471C232.736 497.813 225.717 490.794 217.059 490.794C208.401 490.794 201.383 497.813 201.383 506.471C201.383 512.992 205.365 518.583 211.03 520.946V553.064C211.03 553.346 211.129 553.619 211.309 553.836L215.206 558.512ZM217.059 499.235C213.063 499.235 209.824 502.475 209.824 506.471C209.824 510.467 213.063 513.706 217.059 513.706C221.055 513.706 224.294 510.467 224.294 506.471C224.294 502.475 221.055 499.235 217.059 499.235ZM217.059 554.706C218.391 554.706 219.471 553.626 219.471 552.294V533C219.471 531.668 218.391 530.588 217.059 530.588C215.727 530.588 214.647 531.668 214.647 533V552.294C214.647 553.626 215.727 554.706 217.059 554.706Z" fill="white"/>
</g>
<circle cx="217.059" cy="506.471" r="4.82353" fill="#626363"/>
<circle cx="246" cy="108.529" r="14.4706" fill="url(#paint9_linear)"/>
<path fill-rule="evenodd" clip-rule="evenodd" d="M254.976 114.43C254.766 114.55 254.528 114.613 254.286 114.614H237.732C237.49 114.616 237.252 114.553 237.043 114.43L242.561 108.912L243.917 110.269C244.194 110.535 244.522 110.742 244.882 110.876C245.242 111.011 245.626 111.07 246.009 111.05C246.393 111.068 246.776 111.008 247.135 110.873C247.495 110.739 247.824 110.533 248.102 110.269L249.458 108.912L254.976 114.43ZM255.459 113.924L249.941 108.406L255.459 102.888C255.579 103.098 255.642 103.336 255.643 103.578V113.235C255.664 113.479 255.599 113.723 255.459 113.924ZM236.537 113.924C236.417 113.714 236.354 113.476 236.353 113.235V103.578C236.351 103.336 236.414 103.097 236.537 102.888L242.055 108.406L236.537 113.924ZM254.976 102.382L247.596 109.763C247.386 109.965 247.137 110.122 246.864 110.225C246.591 110.327 246.301 110.374 246.009 110.361C245.718 110.374 245.427 110.327 245.155 110.225C244.882 110.122 244.633 109.965 244.423 109.763L237.043 102.382C237.253 102.263 237.49 102.199 237.732 102.198H254.286C254.528 102.199 254.766 102.263 254.976 102.382Z" fill="white"/>
<circle cx="267.706" cy="369" r="14.4706" fill="url(#paint10_linear)"/>
<path d="M257.456 367.311C257.456 371.648 261.066 375.887 266.802 379.552C267.015 379.684 267.342 379.702 267.555 379.702C267.769 379.702 268.085 379.684 268.309 379.552C274.035 375.887 277.655 371.648 277.655 367.311C277.655 363.707 275.183 361.162 271.888 361.162C270.006 361.162 268.481 362.058 267.555 363.432C266.65 362.068 265.104 361.162 263.223 361.162C259.927 361.162 257.456 363.707 257.456 367.311ZM259.093 367.311C259.093 364.603 260.843 362.801 263.202 362.801C265.114 362.801 266.213 363.992 266.864 365.01C267.138 365.417 267.311 365.529 267.555 365.529C267.799 365.529 267.952 365.407 268.247 365.01C268.949 364.012 270.006 362.801 271.908 362.801C274.268 362.801 276.017 364.603 276.017 367.311C276.017 371.098 272.549 374.913 268.298 377.743C268.196 377.814 267.596 377.893 267.555 377.893C267.515 377.893 266.915 377.814 266.823 377.743C262.562 374.913 259.093 371.098 259.093 367.311Z" fill="url(#paint11_angular)"/>
<circle cx="276.569" cy="369.241" r="0.844118" fill="white"/>
<circle cx="246" cy="622.235" r="14.4706" fill="white"/>
<path d="M232.735 626.155H234.845C236.394 625.462 237.138 624.877 238.312 623.592L241.779 626.758L243.588 611.684L246.151 631.129L248.864 622.688C249.489 622.185 249.854 622.165 250.522 622.386L253.386 626.155H256.099" stroke="url(#paint12_linear)" stroke-width="1.80882" stroke-linecap="round" stroke-linejoin="round"/>
<circle cx="65.118" cy="738" r="14.4706" fill="white"/>
<path fill-rule="evenodd" clip-rule="evenodd" d="M58.043 730.162H61.2195C61.35 730.166 61.4747 730.217 61.5702 730.306L72.8118 741.404C72.8583 741.449 72.895 741.504 72.9198 741.564C72.9446 741.624 72.957 741.689 72.9562 741.754V745.075C72.9564 745.175 72.9368 745.275 72.8985 745.367C72.8603 745.46 72.8041 745.544 72.7332 745.615C72.6622 745.686 72.578 745.742 72.4853 745.781C72.3926 745.819 72.2933 745.839 72.193 745.838H69.0371C68.9065 745.834 68.7819 745.783 68.6864 745.694L57.4448 734.597C57.3983 734.551 57.3616 734.496 57.3368 734.436C57.3119 734.376 57.2996 734.311 57.3004 734.246V730.925C57.2961 730.826 57.3123 730.726 57.3478 730.633C57.3833 730.54 57.4375 730.455 57.5071 730.383C57.5766 730.312 57.66 730.255 57.7522 730.217C57.8443 730.179 57.9433 730.16 58.043 730.162ZM65.8812 730.162H72.193C72.2933 730.162 72.3926 730.181 72.4853 730.22C72.578 730.258 72.6622 730.314 72.7332 730.385C72.8041 730.456 72.8603 730.54 72.8985 730.633C72.9368 730.726 72.9564 730.825 72.9562 730.925V737.484C72.2367 735.923 71.2606 734.494 70.0684 733.256C68.8538 732 67.4387 730.954 65.8812 730.162V730.162ZM64.3548 745.838H58.043C57.9427 745.839 57.8433 745.819 57.7506 745.781C57.6579 745.742 57.5737 745.686 57.5028 745.615C57.4319 745.544 57.3757 745.46 57.3374 745.367C57.2991 745.275 57.2796 745.175 57.2798 745.075V738.516C57.9969 740.078 58.9732 741.508 60.1675 742.744C61.3917 743.99 62.8049 745.034 64.3548 745.838V745.838Z" fill="url(#paint13_linear)"/>
<circle cx="57.8827" cy="14.4706" r="14.4706" fill="url(#paint14_linear)"/>
<path fill-rule="evenodd" clip-rule="evenodd" d="M54.265 3.01465C53.932 3.01465 53.6621 3.28459 53.6621 3.61759V5.42641C53.6621 5.43023 53.6621 5.43403 53.6622 5.43783C51.6385 5.59171 50.0444 7.28246 50.0444 9.34553V20.1985C50.0444 22.3629 51.7991 24.1176 53.9635 24.1176H62.4047C64.5692 24.1176 66.3238 22.3629 66.3238 20.1985V13.8676H66.9268C67.2598 13.8676 67.5297 13.5976 67.5297 13.2646V10.5514C67.5297 10.2184 67.2598 9.94847 66.9268 9.94847H66.3238V9.34553C66.3238 7.18106 64.5692 5.42641 62.4047 5.42641L55.4709 5.42641V3.61759C55.4709 3.28459 55.201 3.01465 54.868 3.01465H54.265Z" fill="black"/>
<circle cx="58.1843" cy="15.978" r="4.8989" stroke="#8B841F" stroke-width="1.05515"/>
<circle cx="58.1841" cy="15.9778" r="3.01471" fill="#FBEA2C"/>
<circle cx="159.176" cy="369" r="65.1176" fill="#C4C4C4"/>
<circle cx="159.176" cy="369" r="65.1176" fill="url(#paint15_linear)"/>
<path fill-rule="evenodd" clip-rule="evenodd" d="M188.469 382.499V386.178C188.467 388.539 188.256 390.896 187.838 393.22C187.634 394.404 187.194 395.536 186.544 396.547C185.894 397.558 185.047 398.428 184.054 399.106H183.949C181.853 400.696 179.324 401.612 176.697 401.734L174.7 401.944C173.132 402.04 171.564 401.766 170.122 401.146C168.68 400.525 167.404 399.574 166.396 398.37C165.348 397.1 164.658 395.572 164.4 393.946C164.141 392.319 164.322 390.653 164.925 389.121V389.016C165.475 387.516 166.386 386.176 167.578 385.113C168.769 384.049 170.205 383.296 171.757 382.919L179.64 380.817C180.631 380.581 181.514 380.016 182.143 379.214C182.773 378.413 183.113 377.422 183.108 376.403V371.042V348.444C183.115 348.183 183.062 347.924 182.953 347.687C182.843 347.45 182.681 347.241 182.477 347.078C182.269 346.923 182.03 346.816 181.776 346.761C181.522 346.707 181.26 346.707 181.006 346.762L147.372 353.594C146.775 353.69 146.234 353.998 145.848 354.461C145.461 354.925 145.256 355.513 145.269 356.117V392.064V394.691C145.268 397.053 145.057 399.409 144.639 401.734C144.435 402.918 143.995 404.05 143.345 405.061C142.695 406.072 141.848 406.942 140.855 407.62H140.75C138.654 409.21 136.125 410.126 133.497 410.247L131.605 410.352C130.038 410.448 128.47 410.175 127.028 409.554C125.586 408.934 124.31 407.983 123.302 406.779C122.254 405.509 121.564 403.981 121.306 402.355C121.047 400.728 121.228 399.062 121.831 397.529V397.424C122.381 395.925 123.292 394.584 124.484 393.521C125.675 392.458 127.111 391.705 128.662 391.328L136.546 389.226C137.537 388.989 138.42 388.425 139.049 387.623C139.679 386.822 140.019 385.831 140.014 384.811V379.451V337.723C140.026 336.826 140.345 335.961 140.92 335.272C141.494 334.583 142.287 334.112 143.167 333.939L185.315 326.266C186.09 326.176 186.872 326.362 187.523 326.792C187.818 327.034 188.056 327.339 188.219 327.684C188.383 328.03 188.468 328.407 188.469 328.789V382.499Z" fill="#BB58BB"/>
<path fill-rule="evenodd" clip-rule="evenodd" d="M188.469 382.499V386.178C188.467 388.539 188.256 390.896 187.838 393.22C187.634 394.404 187.194 395.536 186.544 396.547C185.894 397.558 185.047 398.428 184.054 399.106H183.949C181.853 400.696 179.324 401.612 176.697 401.734L174.7 401.944C173.132 402.04 171.564 401.766 170.122 401.146C168.68 400.525 167.404 399.574 166.396 398.37C165.348 397.1 164.658 395.572 164.4 393.946C164.141 392.319 164.322 390.653 164.925 389.121V389.016C165.475 387.516 166.386 386.176 167.578 385.113C168.769 384.049 170.205 383.296 171.757 382.919L179.64 380.817C180.631 380.581 181.514 380.016 182.143 379.214C182.773 378.413 183.113 377.422 183.108 376.403V371.042V348.444C183.115 348.183 183.062 347.924 182.953 347.687C182.843 347.45 182.681 347.241 182.477 347.078C182.269 346.923 182.03 346.816 181.776 346.761C181.522 346.707 181.26 346.707 181.006 346.762L147.372 353.594C146.775 353.69 146.234 353.998 145.848 354.461C145.461 354.925 145.256 355.513 145.269 356.117V392.064V394.691C145.268 397.053 145.057 399.409 144.639 401.734C144.435 402.918 143.995 404.05 143.345 405.061C142.695 406.072 141.848 406.942 140.855 407.62H140.75C138.654 409.21 136.125 410.126 133.497 410.247L131.605 410.352C130.038 410.448 128.47 410.175 127.028 409.554C125.586 408.934 124.31 407.983 123.302 406.779C122.254 405.509 121.564 403.981 121.306 402.355C121.047 400.728 121.228 399.062 121.831 397.529V397.424C122.381 395.925 123.292 394.584 124.484 393.521C125.675 392.458 127.111 391.705 128.662 391.328L136.546 389.226C137.537 388.989 138.42 388.425 139.049 387.623C139.679 386.822 140.019 385.831 140.014 384.811V379.451V337.723C140.026 336.826 140.345 335.961 140.92 335.272C141.494 334.583 142.287 334.112 143.167 333.939L185.315 326.266C186.09 326.176 186.872 326.362 187.523 326.792C187.818 327.034 188.056 327.339 188.219 327.684C188.383 328.03 188.468 328.407 188.469 328.789V382.499Z" fill="url(#paint16_radial)"/>
<path fill-rule="evenodd" clip-rule="evenodd" d="M188.469 382.499V386.178C188.467 388.539 188.256 390.896 187.838 393.22C187.634 394.404 187.194 395.536 186.544 396.547C185.894 397.558 185.047 398.428 184.054 399.106H183.949C181.853 400.696 179.324 401.612 176.697 401.734L174.7 401.944C173.132 402.04 171.564 401.766 170.122 401.146C168.68 400.525 167.404 399.574 166.396 398.37C165.348 397.1 164.658 395.572 164.4 393.946C164.141 392.319 164.322 390.653 164.925 389.121V389.016C165.475 387.516 166.386 386.176 167.578 385.113C168.769 384.049 170.205 383.296 171.757 382.919L179.64 380.817C180.631 380.581 181.514 380.016 182.143 379.214C182.773 378.413 183.113 377.422 183.108 376.403V371.042V348.444C183.115 348.183 183.062 347.924 182.953 347.687C182.843 347.45 182.681 347.241 182.477 347.078C182.269 346.923 182.03 346.816 181.776 346.761C181.522 346.707 181.26 346.707 181.006 346.762L147.372 353.594C146.775 353.69 146.234 353.998 145.848 354.461C145.461 354.925 145.256 355.513 145.269 356.117V392.064V394.691C145.268 397.053 145.057 399.409 144.639 401.734C144.435 402.918 143.995 404.05 143.345 405.061C142.695 406.072 141.848 406.942 140.855 407.62H140.75C138.654 409.21 136.125 410.126 133.497 410.247L131.605 410.352C130.038 410.448 128.47 410.175 127.028 409.554C125.586 408.934 124.31 407.983 123.302 406.779C122.254 405.509 121.564 403.981 121.306 402.355C121.047 400.728 121.228 399.062 121.831 397.529V397.424C122.381 395.925 123.292 394.584 124.484 393.521C125.675 392.458 127.111 391.705 128.662 391.328L136.546 389.226C137.537 388.989 138.42 388.425 139.049 387.623C139.679 386.822 140.019 385.831 140.014 384.811V379.451V337.723C140.026 336.826 140.345 335.961 140.92 335.272C141.494 334.583 142.287 334.112 143.167 333.939L185.315 326.266C186.09 326.176 186.872 326.362 187.523 326.792C187.818 327.034 188.056 327.339 188.219 327.684C188.383 328.03 188.468 328.407 188.469 328.789V382.499Z" fill="url(#paint17_radial)"/>
<path fill-rule="evenodd" clip-rule="evenodd" d="M188.469 382.499V386.178C188.467 388.539 188.256 390.896 187.838 393.22C187.634 394.404 187.194 395.536 186.544 396.547C185.894 397.558 185.047 398.428 184.054 399.106H183.949C181.853 400.696 179.324 401.612 176.697 401.734L174.7 401.944C173.132 402.04 171.564 401.766 170.122 401.146C168.68 400.525 167.404 399.574 166.396 398.37C165.348 397.1 164.658 395.572 164.4 393.946C164.141 392.319 164.322 390.653 164.925 389.121V389.016C165.475 387.516 166.386 386.176 167.578 385.113C168.769 384.049 170.205 383.296 171.757 382.919L179.64 380.817C180.631 380.581 181.514 380.016 182.143 379.214C182.773 378.413 183.113 377.422 183.108 376.403V371.042V348.444C183.115 348.183 183.062 347.924 182.953 347.687C182.843 347.45 182.681 347.241 182.477 347.078C182.269 346.923 182.03 346.816 181.776 346.761C181.522 346.707 181.26 346.707 181.006 346.762L147.372 353.594C146.775 353.69 146.234 353.998 145.848 354.461C145.461 354.925 145.256 355.513 145.269 356.117V392.064V394.691C145.268 397.053 145.057 399.409 144.639 401.734C144.435 402.918 143.995 404.05 143.345 405.061C142.695 406.072 141.848 406.942 140.855 407.62H140.75C138.654 409.21 136.125 410.126 133.497 410.247L131.605 410.352C130.038 410.448 128.47 410.175 127.028 409.554C125.586 408.934 124.31 407.983 123.302 406.779C122.254 405.509 121.564 403.981 121.306 402.355C121.047 400.728 121.228 399.062 121.831 397.529V397.424C122.381 395.925 123.292 394.584 124.484 393.521C125.675 392.458 127.111 391.705 128.662 391.328L136.546 389.226C137.537 388.989 138.42 388.425 139.049 387.623C139.679 386.822 140.019 385.831 140.014 384.811V379.451V337.723C140.026 336.826 140.345 335.961 140.92 335.272C141.494 334.583 142.287 334.112 143.167 333.939L185.315 326.266C186.09 326.176 186.872 326.362 187.523 326.792C187.818 327.034 188.056 327.339 188.219 327.684C188.383 328.03 188.468 328.407 188.469 328.789V382.499Z" fill="url(#paint18_linear)"/>
<path fill-rule="evenodd" clip-rule="evenodd" d="M188.469 382.499V386.178C188.467 388.539 188.256 390.896 187.838 393.22C187.634 394.404 187.194 395.536 186.544 396.547C185.894 397.558 185.047 398.428 184.054 399.106H183.949C181.853 400.696 179.324 401.612 176.697 401.734L174.7 401.944C173.132 402.04 171.564 401.766 170.122 401.146C168.68 400.525 167.404 399.574 166.396 398.37C165.348 397.1 164.658 395.572 164.4 393.946C164.141 392.319 164.322 390.653 164.925 389.121V389.016C165.475 387.516 166.386 386.176 167.578 385.113C168.769 384.049 170.205 383.296 171.757 382.919L179.64 380.817C180.631 380.581 181.514 380.016 182.143 379.214C182.773 378.413 183.113 377.422 183.108 376.403V371.042V348.444C183.115 348.183 183.062 347.924 182.953 347.687C182.843 347.45 182.681 347.241 182.477 347.078C182.269 346.923 182.03 346.816 181.776 346.761C181.522 346.707 181.26 346.707 181.006 346.762L147.372 353.594C146.775 353.69 146.234 353.998 145.848 354.461C145.461 354.925 145.256 355.513 145.269 356.117V392.064V394.691C145.268 397.053 145.057 399.409 144.639 401.734C144.435 402.918 143.995 404.05 143.345 405.061C142.695 406.072 141.848 406.942 140.855 407.62H140.75C138.654 409.21 136.125 410.126 133.497 410.247L131.605 410.352C130.038 410.448 128.47 410.175 127.028 409.554C125.586 408.934 124.31 407.983 123.302 406.779C122.254 405.509 121.564 403.981 121.306 402.355C121.047 400.728 121.228 399.062 121.831 397.529V397.424C122.381 395.925 123.292 394.584 124.484 393.521C125.675 392.458 127.111 391.705 128.662 391.328L136.546 389.226C137.537 388.989 138.42 388.425 139.049 387.623C139.679 386.822 140.019 385.831 140.014 384.811V379.451V337.723C140.026 336.826 140.345 335.961 140.92 335.272C141.494 334.583 142.287 334.112 143.167 333.939L185.315 326.266C186.09 326.176 186.872 326.362 187.523 326.792C187.818 327.034 188.056 327.339 188.219 327.684C188.383 328.03 188.468 328.407 188.469 328.789V382.499Z" fill="white"/>
<defs>
<linearGradient id="paint0_linear" x1="116.669" y1="150.585" x2="16.9577" y2="240.8" gradientUnits="userSpaceOnUse">
<stop stop-color="#C3EB40"/>
<stop offset="1" stop-color="#A5FB43"/>
</linearGradient>
<radialGradient id="paint1_angular" cx="0" cy="0" r="1" gradientUnits="userSpaceOnUse" gradientTransform="translate(157.963 652.116) rotate(170.528) scale(22.2275 24.6144)">
<stop offset="0.0819939" stop-color="#D4DEFF" stop-opacity="0"/>
<stop offset="0.316378" stop-color="#D4DEFF"/>
<stop offset="0.660142" stop-color="#53C0FF"/>
</radialGradient>
<radialGradient id="paint2_angular" cx="0" cy="0" r="1" gradientUnits="userSpaceOnUse" gradientTransform="translate(151.045 664.778) rotate(-9.47215) scale(22.2275 24.6144)">
<stop offset="0.0819939" stop-color="#D4DEFF" stop-opacity="0"/>
<stop offset="0.316378" stop-color="#D4DEFF"/>
<stop offset="0.660142" stop-color="#ED4837"/>
</radialGradient>
<linearGradient id="paint3_linear" x1="65.1176" y1="463.059" x2="65.1176" y2="593.294" gradientUnits="userSpaceOnUse">
<stop stop-color="#F8F974"/>
<stop offset="1" stop-color="#F6CF46"/>
</linearGradient>
<radialGradient id="paint4_radial" cx="0" cy="0" r="1" gradientUnits="userSpaceOnUse" gradientTransform="translate(172.35 79.4767) rotate(180) scale(69.432)">
<stop stop-color="#1F7DF1"/>
<stop offset="0.73" stop-color="#1F7DF1" stop-opacity="0"/>
</radialGradient>
<radialGradient id="paint5_radial" cx="0" cy="0" r="1" gradientUnits="userSpaceOnUse" gradientTransform="translate(117.099 108.881) rotate(-122.735) scale(54.3631 73.2364)">
<stop stop-color="#4DC2A1"/>
<stop offset="0.27" stop-color="#4DC2A1" stop-opacity="0.67"/>
<stop offset="0.58" stop-color="#4DC2A1" stop-opacity="0.31"/>
<stop offset="0.81" stop-color="#4DC2A1" stop-opacity="0.09"/>
<stop offset="0.93" stop-color="#4DC2A1" stop-opacity="0"/>
</radialGradient>
<radialGradient id="paint6_radial" cx="0" cy="0" r="1" gradientUnits="userSpaceOnUse" gradientTransform="translate(110.796 51.6146) scale(69.432)">
<stop offset="0.17" stop-color="#F05E56"/>
<stop offset="0.22" stop-color="#F05E56" stop-opacity="0.96"/>
<stop offset="0.31" stop-color="#F05E56" stop-opacity="0.84"/>
<stop offset="0.42" stop-color="#F05E56" stop-opacity="0.65"/>
<stop offset="0.56" stop-color="#F05E56" stop-opacity="0.38"/>
<stop offset="0.72" stop-color="#F05E56" stop-opacity="0.04"/>
<stop offset="0.74" stop-color="#F05E56" stop-opacity="0"/>
</radialGradient>
<radialGradient id="paint7_radial" cx="0" cy="0" r="1" gradientUnits="userSpaceOnUse" gradientTransform="translate(146.763 28.2976) rotate(57.2648) scale(54.3631 73.2364)">
<stop stop-color="#EA66CB"/>
<stop offset="0.02" stop-color="#EA66CB" stop-opacity="0.96"/>
<stop offset="0.16" stop-color="#EA66CB" stop-opacity="0.71"/>
<stop offset="0.29" stop-color="#EA66CB" stop-opacity="0.49"/>
<stop offset="0.43" stop-color="#EA66CB" stop-opacity="0.32"/>
<stop offset="0.56" stop-color="#EA66CB" stop-opacity="0.18"/>
<stop offset="0.68" stop-color="#EA66CB" stop-opacity="0.08"/>
<stop offset="0.8" stop-color="#EA66CB" stop-opacity="0.02"/>
<stop offset="0.9" stop-color="#EA66CB" stop-opacity="0"/>
</radialGradient>
<linearGradient id="paint8_linear" x1="217.059" y1="159.177" x2="217.059" y2="274.941" gradientUnits="userSpaceOnUse">
<stop stop-color="#FE9D02"/>
<stop offset="1" stop-color="#F7701D"/>
</linearGradient>
<linearGradient id="paint9_linear" x1="246" y1="94.0589" x2="246" y2="123" gradientUnits="userSpaceOnUse">
<stop stop-color="#1D6FF2"/>
<stop offset="1" stop-color="#1AC8FC"/>
</linearGradient>
<linearGradient id="paint10_linear" x1="267.706" y1="354.53" x2="267.706" y2="383.471" gradientUnits="userSpaceOnUse">
<stop stop-color="#D6432A"/>
<stop offset="1" stop-color="#BD2B34"/>
</linearGradient>
<radialGradient id="paint11_angular" cx="0" cy="0" r="1" gradientUnits="userSpaceOnUse" gradientTransform="translate(270.118 369) rotate(1.27303) scale(6.78476 7.34619)">
<stop offset="0.00538233" stop-color="white" stop-opacity="0"/>
<stop offset="1" stop-color="white"/>
</radialGradient>
<linearGradient id="paint12_linear" x1="256.25" y1="626.155" x2="231.831" y2="626.155" gradientUnits="userSpaceOnUse">
<stop stop-color="#EC6645"/>
<stop offset="0.519512" stop-color="#EA5754"/>
<stop offset="0.719896" stop-color="#EA787B"/>
<stop offset="1" stop-color="#EA787B" stop-opacity="0"/>
</linearGradient>
<linearGradient id="paint13_linear" x1="65.1186" y1="745.841" x2="65.1186" y2="730.165" gradientUnits="userSpaceOnUse">
<stop stop-color="#FD355A"/>
<stop offset="1" stop-color="#FD5163"/>
</linearGradient>
<linearGradient id="paint14_linear" x1="57.8827" y1="0" x2="57.8827" y2="28.9412" gradientUnits="userSpaceOnUse">
<stop stop-color="#F8FB58"/>
<stop offset="1" stop-color="#FEDC04"/>
</linearGradient>
<linearGradient id="paint15_linear" x1="159.176" y1="434.118" x2="159.176" y2="303.883" gradientUnits="userSpaceOnUse">
<stop stop-color="#FD355A"/>
<stop offset="1" stop-color="#FD5163"/>
</linearGradient>
<radialGradient id="paint16_radial" cx="0" cy="0" r="1" gradientUnits="userSpaceOnUse" gradientTransform="translate(135.516 401.301) rotate(90) scale(53.1981)">
<stop stop-color="#7470F9"/>
<stop offset="1" stop-color="#7A70FE" stop-opacity="0"/>
</radialGradient>
<radialGradient id="paint17_radial" cx="0" cy="0" r="1" gradientUnits="userSpaceOnUse" gradientTransform="translate(177.486 389.158) rotate(-105.538) scale(42.9406)">
<stop stop-color="#4CA3F8"/>
<stop offset="0.362" stop-color="#4CA4F7"/>
<stop offset="1" stop-color="#4AA2F9" stop-opacity="0"/>
</radialGradient>
<linearGradient id="paint18_linear" x1="146.743" y1="342.436" x2="165.268" y2="376.067" gradientUnits="userSpaceOnUse">
<stop stop-color="#FF6380"/>
<stop offset="1" stop-color="#F65E79" stop-opacity="0"/>
</linearGradient>
<clipPath id="clip0">
<rect width="31.3529" height="53.0588" fill="white" transform="translate(201.383 506.471)"/>
</clipPath>
</defs>
</svg>
