<svg width="579" height="261" viewBox="0 0 579 261" fill="none" xmlns="http://www.w3.org/2000/svg">
<circle cx="57.8823" cy="202.588" r="57.8823" fill="#E3E1DA"/>
<mask id="mask0" style="mask-type:alpha" maskUnits="userSpaceOnUse" x="0" y="144" width="116" height="117">
<circle cx="57.8823" cy="202.588" r="57.8823" fill="#E3E1DA"/>
</mask>
<g mask="url(#mask0)">
<rect x="65.1176" y="133.853" width="57.8823" height="57.8823" fill="#9DE07B"/>
<rect x="75.9706" y="217.059" width="43.4118" height="43.4118" fill="#FFCBD5"/>
<g filter="url(#filter0_d)">
<path fill-rule="evenodd" clip-rule="evenodd" d="M75.9706 144.706H39.7941L39.7941 184.5V220.676L39.7941 264.088H75.9706V220.676H115.765V184.5H75.9706V144.706Z" fill="white"/>
</g>
</g>
<circle cx="57.8823" cy="202.588" r="28.9412" fill="#0079DB"/>
<path d="M47.3862 217.272C47.6247 217.272 47.8631 217.177 48.0857 216.939L57.8629 207.209C57.9106 207.145 57.9583 207.114 57.9901 207.114C58.0378 207.114 58.0696 207.145 58.1332 207.209L67.8945 216.939C68.1329 217.177 68.3714 217.272 68.6099 217.272C69.0232 217.272 69.3412 216.939 69.3412 216.478C69.3412 216.319 69.2935 216.175 69.2458 216.001L58.9281 187.337C58.7373 186.812 58.4511 186.478 57.9901 186.478C57.5449 186.478 57.2588 186.812 57.068 187.337L46.7503 216.001C46.6867 216.175 46.6549 216.319 46.6549 216.478C46.6549 216.939 46.9729 217.272 47.3862 217.272Z" fill="white"/>
<circle cx="209.824" cy="195.353" r="65.1176" fill="url(#paint0_linear)"/>
<circle cx="209.824" cy="195.353" r="43.4118" fill="url(#paint1_linear)"/>
<circle cx="209.824" cy="195.353" r="42.0551" stroke="white" stroke-opacity="0.1" stroke-width="2.71323"/>
<mask id="mask1" style="mask-type:alpha" maskUnits="userSpaceOnUse" x="144" y="130" width="131" height="131">
<circle cx="209.824" cy="195.353" r="65.1176" fill="url(#paint2_linear)"/>
</mask>
<g mask="url(#mask1)">
<path d="M209.824 196.71L167.528 120.4L252.119 120.4L209.824 196.71Z" fill="url(#paint3_linear)"/>
</g>
<circle cx="209.824" cy="195.353" r="18.9926" fill="#0079FF" stroke="white" stroke-width="5.42647"/>
<circle cx="369" cy="180.882" r="65.1176" fill="url(#paint4_linear)"/>
<path d="M387.993 141.54C387.993 146.036 384.348 149.68 379.853 149.68C375.357 149.68 371.713 146.036 371.713 141.54C371.713 137.045 375.357 133.401 379.853 133.401C384.348 133.401 387.993 137.045 387.993 141.54Z" fill="black"/>
<path d="M358.372 208.208C359.436 207.775 360.311 206.898 360.702 205.724L367.405 185.622L381.338 196.87L364.641 207.764C362.553 209.127 361.965 211.924 363.328 214.013C364.69 216.101 367.488 216.689 369.576 215.327L390.197 201.871C390.974 201.656 391.692 201.205 392.237 200.531C393.623 198.813 393.355 196.296 391.637 194.91L375.851 182.167L379.61 173.281L381.313 177.136C381.361 177.684 381.524 178.23 381.811 178.741C382.892 180.665 385.328 181.349 387.253 180.268L402.472 171.717C404.397 170.636 405.08 168.199 403.999 166.275C402.918 164.35 400.481 163.667 398.557 164.748L386.909 171.292L379.083 153.79C378.31 152.676 376.958 152.021 375.521 152.206L355.012 154.844C354.757 154.877 354.51 154.935 354.276 155.015C352.17 154.974 350.376 156.585 350.216 158.711L348.951 175.523C348.785 177.724 350.435 179.643 352.636 179.808C354.837 179.974 356.756 178.324 356.922 176.123L357.983 162.021L364.788 161.146L360.956 179.691C360.756 179.989 360.593 180.317 360.474 180.673L352.721 202.588C352.189 202.805 352.236 202.856 351.817 203.302L337.901 218.145C336.346 219.805 336.43 222.411 338.089 223.967C339.749 225.523 342.355 225.438 343.911 223.779L357.827 208.936C358.039 208.709 358.221 208.465 358.372 208.208Z" fill="black"/>
<circle cx="126.618" cy="65.1176" r="43.4118" fill="url(#paint5_linear)"/>
<ellipse cx="114.214" cy="58.9158" rx="15.5042" ry="15.5042" fill="url(#paint6_linear)"/>
<path fill-rule="evenodd" clip-rule="evenodd" d="M139.021 83.7227L139.021 83.7229H114.214L114.214 83.7227C109.077 83.7227 104.912 79.5579 104.912 74.4202C104.912 69.2826 109.077 65.1177 114.214 65.1177C114.346 65.1177 114.477 65.1204 114.607 65.1258C114.351 64.1323 114.214 63.0905 114.214 62.0169C114.214 55.1667 119.767 49.6135 126.618 49.6135C132.399 49.6135 137.257 53.5693 138.632 58.922C138.761 58.918 138.891 58.916 139.021 58.916C145.871 58.916 151.424 64.4692 151.424 71.3193C151.424 78.1695 145.871 83.7227 139.021 83.7227Z" fill="url(#paint7_linear)"/>
<circle cx="282.176" cy="61.5" r="57.8823" fill="white"/>
<path d="M265.047 38.5883H267.685V23.868H272.878V21.5952H259.842V23.868H265.047V38.5883Z" fill="#FF483E"/>
<path d="M277.888 38.8356C279.772 38.8356 281.032 37.9759 281.68 36.7276H281.738V38.5883H284.294V26.1997H281.738V33.4303C281.738 35.3616 280.584 36.6452 278.794 36.6452C277.028 36.6452 276.156 35.6089 276.156 33.7365V26.1997H273.613V34.2311C273.613 37.0809 275.167 38.8356 277.888 38.8356Z" fill="#FF483E"/>
<path d="M293.307 38.8356C296.31 38.8356 298.218 37.0456 298.618 35.079L298.642 34.9494H296.228L296.192 35.0436C295.875 35.9739 294.874 36.7512 293.366 36.7512C291.341 36.7512 290.057 35.3851 290.01 33.0417H298.783V32.182C298.783 28.4607 296.652 25.9642 293.178 25.9642C289.704 25.9642 287.466 28.5549 287.466 32.4293V32.4411C287.466 36.3508 289.668 38.8356 293.307 38.8356ZM293.19 28.0486C294.85 28.0486 296.051 29.0966 296.263 31.2399H290.045C290.269 29.1673 291.541 28.0486 293.19 28.0486Z" fill="#FF483E"/>
<path d="M261.928 96.4706H268.076V45.4915H261.858L248.292 55.2421V61.6366L261.787 52.2392H261.928V96.4706Z" fill="black"/>
<path d="M297.805 97.3185C308.404 97.3185 315.929 90.1821 315.964 79.9721V79.9015C315.964 70.1155 308.899 63.0144 299.112 63.0144C294.166 63.0144 289.927 64.8515 287.525 68.2784H287.383L289.115 51.144H313.067V45.4915H283.886L281.272 74.5669H286.889C287.56 73.401 288.373 72.4118 289.291 71.5639C291.552 69.5149 294.52 68.4904 297.982 68.4904C304.73 68.4904 309.57 73.295 309.605 80.0075V80.0781C309.605 86.9319 304.8 91.7366 297.876 91.7366C291.764 91.7366 287.242 87.8858 286.606 82.8338L286.571 82.5511H280.318L280.353 82.9397C281.095 91.242 288.055 97.3185 297.805 97.3185Z" fill="black"/>
<circle cx="444.971" cy="50.6471" r="50.6471" fill="#1E265A"/>
<path d="M476.94 70.3698L454.833 88.2679C452.18 90.4166 448.869 91.589 445.455 91.589C442.041 91.589 438.731 90.4166 436.078 88.2679L413.971 70.3698C413.107 69.6715 412.411 68.7889 411.932 67.7867C411.454 66.7845 411.206 65.6881 411.206 64.5776C411.206 63.4671 411.454 62.3707 411.932 61.3685C412.411 60.3663 413.107 59.4838 413.971 58.7854L436.078 40.878C438.731 38.7293 442.041 37.5569 445.455 37.5569C448.869 37.5569 452.18 38.7293 454.833 40.878L476.94 58.7854C477.803 59.4838 478.5 60.3663 478.978 61.3685C479.456 62.3707 479.705 63.4671 479.705 64.5776C479.705 65.6881 479.456 66.7845 478.978 67.7867C478.5 68.7889 477.803 69.6715 476.94 70.3698V70.3698Z" fill="url(#paint8_radial)"/>
<path d="M413.971 58.7854L436.078 40.878C438.731 38.7293 442.041 37.5569 445.455 37.5569C448.869 37.5569 452.18 38.7293 454.833 40.878L476.94 58.7854C477.803 59.4838 478.5 60.3663 478.978 61.3685C479.456 62.3707 479.705 63.4671 479.705 64.5776C479.705 65.6881 479.456 66.7845 478.978 67.7867C478.5 68.7889 477.803 69.6715 476.94 70.3698L454.833 88.2679C452.18 90.4166 448.869 91.589 445.455 91.589C442.041 91.589 438.731 90.4166 436.078 88.2679L413.971 70.3698C413.107 69.6715 412.411 68.7889 411.932 67.7867C411.454 66.7845 411.206 65.6881 411.206 64.5776C411.206 63.4671 411.454 62.3707 411.932 61.3685C412.411 60.3663 413.107 59.4838 413.971 58.7854V58.7854Z" fill="url(#paint9_radial)"/>
<path d="M413.971 31.78L436.078 13.8726C438.731 11.7239 442.041 10.5515 445.455 10.5515C448.869 10.5515 452.18 11.7239 454.833 13.8726L476.94 31.78C477.803 32.4784 478.5 33.361 478.978 34.3631C479.456 35.3653 479.705 36.4617 479.705 37.5722C479.705 38.6827 479.456 39.7792 478.978 40.7813C478.5 41.7835 477.803 42.6661 476.94 43.3645L454.833 61.2626C452.18 63.4112 448.869 64.5837 445.455 64.5837C442.041 64.5837 438.731 63.4112 436.078 61.2626L413.971 43.3645C413.107 42.6661 412.411 41.7835 411.932 40.7813C411.454 39.7792 411.206 38.6827 411.206 37.5722C411.206 36.4617 411.454 35.3653 411.932 34.3631C412.411 33.361 413.107 32.4784 413.971 31.78V31.78Z" fill="url(#paint10_radial)"/>
<path d="M476.94 43.3645L454.833 61.2626C452.18 63.4112 448.869 64.5837 445.455 64.5837C442.041 64.5837 438.731 63.4112 436.078 61.2626L413.971 43.3645C413.107 42.6661 412.411 41.7835 411.932 40.7813C411.454 39.7792 411.206 38.6827 411.206 37.5722C411.206 36.4617 411.454 35.3653 411.932 34.3631C412.411 33.361 413.107 32.4784 413.971 31.78L436.078 13.8726C438.731 11.7239 442.041 10.5515 445.455 10.5515C448.869 10.5515 452.18 11.7239 454.833 13.8726L476.94 31.78C477.803 32.4784 478.5 33.361 478.978 34.3631C479.456 35.3653 479.705 36.4617 479.705 37.5722C479.705 38.6827 479.456 39.7792 478.978 40.7813C478.5 41.7835 477.803 42.6661 476.94 43.3645Z" fill="url(#paint11_radial)"/>
<circle cx="520.941" cy="202.588" r="57.8823" fill="url(#paint12_linear)"/>
<path fill-rule="evenodd" clip-rule="evenodd" d="M541.961 172.441C551.654 172.441 556.699 175.893 559.765 178.226C560.449 178.739 561 179.392 561.377 180.136C561.754 180.879 561.947 181.694 561.941 182.518V227.956C561.915 228.298 561.776 228.624 561.545 228.889C561.419 229.015 561.265 229.114 561.094 229.178C560.924 229.242 560.74 229.271 560.556 229.262C560.387 229.27 560.218 229.241 560.064 229.176C559.909 229.111 559.773 229.013 559.666 228.889C556.6 226.463 550.566 223.291 541.664 223.291C526.827 223.291 522.474 236.353 522.474 236.353V186.903C522.481 184.365 523.386 181.902 525.046 179.905C527.816 176.453 532.86 172.441 541.961 172.441ZM499.823 172.441C508.923 172.441 513.968 176.453 516.836 179.905C518.497 181.902 519.402 184.365 519.408 186.903V236.353C519.408 236.353 515.056 223.291 500.219 223.291C491.317 223.291 485.283 226.463 482.217 228.889C481.94 229.052 481.64 229.177 481.326 229.262C481.143 229.266 480.961 229.235 480.791 229.171C480.621 229.107 480.467 229.011 480.337 228.889C480.208 228.767 480.106 228.621 480.038 228.461C479.97 228.3 479.937 228.128 479.942 227.956V182.518C479.947 181.695 480.144 180.884 480.52 180.142C480.897 179.4 481.442 178.746 482.118 178.226C485.085 175.893 490.13 172.441 499.823 172.441Z" fill="white"/>
<circle cx="549.882" cy="94.0587" r="14.4706" fill="url(#paint13_linear)"/>
<path fill-rule="evenodd" clip-rule="evenodd" d="M558.859 99.9594C558.648 100.079 558.411 100.142 558.169 100.143H541.615C541.373 100.145 541.134 100.082 540.925 99.9594L546.443 94.4414L547.8 95.7979C548.076 96.0643 548.405 96.2711 548.765 96.4056C549.125 96.5401 549.508 96.5993 549.892 96.5796C550.275 96.5972 550.658 96.537 551.018 96.4026C551.378 96.2683 551.706 96.0626 551.984 95.7979L553.341 94.4414L558.859 99.9594ZM559.341 99.4536L553.823 93.9355L559.341 88.4175C559.461 88.6278 559.525 88.8654 559.525 89.1073V98.7638C559.547 99.0082 559.482 99.2523 559.341 99.4536ZM540.419 99.4536C540.3 99.2433 540.236 99.0057 540.235 98.7638V89.1073C540.233 88.865 540.297 88.6266 540.419 88.4175L545.937 93.9355L540.419 99.4536ZM558.859 87.9117L551.478 95.2921C551.268 95.494 551.019 95.6511 550.747 95.7539C550.474 95.8566 550.183 95.9029 549.892 95.8898C549.601 95.9029 549.31 95.8566 549.037 95.7539C548.765 95.6511 548.516 95.494 548.305 95.2921L540.925 87.9117C541.135 87.792 541.373 87.7287 541.615 87.7278H558.169C558.411 87.7287 558.648 87.792 558.859 87.9117Z" fill="white"/>
<circle cx="14.4706" cy="83.2059" r="14.4706" fill="white"/>
<path fill-rule="evenodd" clip-rule="evenodd" d="M20.4377 76.8577V75.4771C20.438 75.353 20.4875 75.2342 20.5752 75.1465C20.6628 75.0588 20.7817 75.0094 20.9057 75.009H22.0757C22.1998 75.0094 22.3186 75.0588 22.4063 75.1465C22.494 75.2342 22.5434 75.353 22.5438 75.4771V78.5426L24.8371 80.3679C24.8941 80.4157 24.9307 80.4836 24.9394 80.5575C24.9481 80.6314 24.9282 80.7059 24.8839 80.7657C24.8597 80.7997 24.8283 80.8278 24.7918 80.8481C24.7554 80.8683 24.7149 80.8801 24.6733 80.8827H22.7778V90.2431C22.7767 90.6151 22.6284 90.9716 22.3653 91.2347C22.1023 91.4978 21.7458 91.6461 21.3737 91.6471H7.80114C7.4291 91.6461 7.0726 91.4978 6.80953 91.2347C6.54645 90.9716 6.39817 90.6151 6.39708 90.2431V80.8827H4.5016C4.46433 80.8842 4.42716 80.8779 4.39243 80.8643C4.35769 80.8507 4.32614 80.8301 4.29977 80.8037C4.27339 80.7773 4.25276 80.7458 4.23917 80.7111C4.22558 80.6763 4.21932 80.6391 4.22079 80.6019C4.22057 80.5597 4.23122 80.5181 4.25171 80.4812C4.27221 80.4444 4.30185 80.4134 4.3378 80.3913L14.3066 72.4583C14.3889 72.3903 14.4923 72.353 14.5991 72.353C14.7059 72.353 14.8094 72.3903 14.8916 72.4583L20.4377 76.8577Z" fill="#FA9013"/>
<path fill-rule="evenodd" clip-rule="evenodd" d="M14.8682 74.4005L21.2801 79.3849C21.3336 79.4334 21.367 79.5002 21.3737 79.5721V89.7515C21.3733 89.8755 21.3239 89.9944 21.2362 90.0821C21.1485 90.1698 21.0297 90.2192 20.9057 90.2195H8.26913C8.14512 90.2192 8.02629 90.1697 7.93859 90.0821C7.8509 89.9944 7.80148 89.8755 7.80111 89.7515V79.6657C7.79927 79.6291 7.80691 79.5926 7.82331 79.5598C7.83971 79.527 7.86431 79.499 7.89472 79.4785L14.3066 74.4005C14.3844 74.3326 14.4841 74.2952 14.5874 74.2952C14.6907 74.2952 14.7904 74.3326 14.8682 74.4005V74.4005Z" fill="#FFAE28"/>
<path fill-rule="evenodd" clip-rule="evenodd" d="M14.8682 76.5768L19.642 80.0869C19.6724 80.1074 19.697 80.1354 19.7134 80.1682C19.7298 80.201 19.7375 80.2375 19.7356 80.2741V88.1135C19.7352 88.2375 19.6858 88.3563 19.5981 88.444C19.5104 88.5317 19.3916 88.5811 19.2676 88.5815H9.90719C9.78318 88.5811 9.66435 88.5317 9.57666 88.444C9.48896 88.3563 9.43954 88.2375 9.43917 88.1135V80.5081C9.43733 80.4715 9.44497 80.435 9.46137 80.4022C9.47777 80.3694 9.50237 80.3414 9.53278 80.3209L14.3066 76.5768C14.3891 76.5196 14.487 76.489 14.5874 76.489C14.6877 76.489 14.7857 76.5196 14.8682 76.5768V76.5768Z" fill="#FFC148"/>
<path fill-rule="evenodd" clip-rule="evenodd" d="M14.8682 78.6361L18.0039 80.9996C18.0343 81.0201 18.0589 81.0481 18.0753 81.0809C18.0917 81.1137 18.0994 81.1502 18.0975 81.1868V86.4754C18.0972 86.5994 18.0477 86.7183 17.9601 86.806C17.8724 86.8937 17.7535 86.9431 17.6295 86.9435H11.5453C11.4212 86.9431 11.3024 86.8937 11.2147 86.806C11.127 86.7183 11.0776 86.5994 11.0772 86.4754V81.3506C11.0754 81.314 11.083 81.2775 11.0994 81.2447C11.1158 81.2119 11.1404 81.1839 11.1708 81.1634L14.3066 78.6595C14.3843 78.5937 14.4817 78.5557 14.5834 78.5514C14.6851 78.5472 14.7853 78.577 14.8682 78.6361Z" fill="#FFD361"/>
<path fill-rule="evenodd" clip-rule="evenodd" d="M14.7513 80.672L16.3893 82.1931C16.4318 82.2374 16.4568 82.2956 16.4595 82.3569V85.0714C16.4614 85.1026 16.4567 85.1339 16.4456 85.1632C16.4345 85.1924 16.4173 85.219 16.3952 85.2411C16.3731 85.2632 16.3465 85.2804 16.3173 85.2915C16.288 85.3026 16.2567 85.3073 16.2255 85.3054H12.9494C12.9182 85.3073 12.8869 85.3026 12.8576 85.2915C12.8284 85.2804 12.8018 85.2632 12.7797 85.2411C12.7576 85.219 12.7404 85.1924 12.7293 85.1632C12.7182 85.1339 12.7135 85.1026 12.7154 85.0714V82.3569C12.7145 82.3262 12.7203 82.2956 12.7325 82.2673C12.7446 82.239 12.7627 82.2137 12.7856 82.1931L14.4236 80.672C14.4714 80.6378 14.5287 80.6194 14.5874 80.6194C14.6462 80.6194 14.7035 80.6378 14.7513 80.672V80.672Z" fill="#FFE780"/>
<defs>
<filter id="filter0_d" x="32.5588" y="137.507" width="90.4412" height="133.853" filterUnits="userSpaceOnUse" color-interpolation-filters="sRGB">
<feFlood flood-opacity="0" result="BackgroundImageFix"/>
<feColorMatrix in="SourceAlpha" type="matrix" values="0 0 0 0 0 0 0 0 0 0 0 0 0 0 0 0 0 0 127 0" result="hardAlpha"/>
<feOffset dy="0.0361765"/>
<feGaussianBlur stdDeviation="3.61765"/>
<feColorMatrix type="matrix" values="0 0 0 0 0 0 0 0 0 0 0 0 0 0 0 0 0 0 0.1 0"/>
<feBlend mode="normal" in2="BackgroundImageFix" result="effect1_dropShadow"/>
<feBlend mode="normal" in="SourceGraphic" in2="effect1_dropShadow" result="shape"/>
</filter>
<linearGradient id="paint0_linear" x1="209.824" y1="130.235" x2="209.824" y2="260.471" gradientUnits="userSpaceOnUse">
<stop stop-color="#3BD567"/>
<stop offset="1" stop-color="#1EB851"/>
</linearGradient>
<linearGradient id="paint1_linear" x1="209.824" y1="151.941" x2="209.824" y2="238.765" gradientUnits="userSpaceOnUse">
<stop stop-color="#4CDD5A"/>
<stop offset="1" stop-color="#41CD5A"/>
</linearGradient>
<linearGradient id="paint2_linear" x1="209.824" y1="130.235" x2="209.824" y2="260.471" gradientUnits="userSpaceOnUse">
<stop stop-color="#3BD567"/>
<stop offset="1" stop-color="#1EB851"/>
</linearGradient>
<linearGradient id="paint3_linear" x1="209.824" y1="196.71" x2="209.824" y2="94.9634" gradientUnits="userSpaceOnUse">
<stop offset="0.259084" stop-color="#0079FF"/>
<stop offset="0.582014" stop-color="#0079FF" stop-opacity="0"/>
</linearGradient>
<linearGradient id="paint4_linear" x1="420.551" y1="136.114" x2="320.84" y2="226.329" gradientUnits="userSpaceOnUse">
<stop stop-color="#C3EB40"/>
<stop offset="1" stop-color="#A5FB43"/>
</linearGradient>
<linearGradient id="paint5_linear" x1="126.618" y1="21.7058" x2="126.618" y2="108.529" gradientUnits="userSpaceOnUse">
<stop stop-color="#1E65F7"/>
<stop offset="1" stop-color="#1AD5FD"/>
</linearGradient>
<linearGradient id="paint6_linear" x1="114.214" y1="43.4116" x2="114.214" y2="74.42" gradientUnits="userSpaceOnUse">
<stop stop-color="#E1B828"/>
<stop offset="1" stop-color="#FFE400"/>
</linearGradient>
<linearGradient id="paint7_linear" x1="128.168" y1="49.6135" x2="128.168" y2="83.7228" gradientUnits="userSpaceOnUse">
<stop offset="0.248667" stop-color="white" stop-opacity="0.8"/>
<stop offset="0.77473" stop-color="white" stop-opacity="0.980243"/>
<stop offset="1" stop-color="white"/>
</linearGradient>
<radialGradient id="paint8_radial" cx="0" cy="0" r="1" gradientUnits="userSpaceOnUse" gradientTransform="translate(476.232 65.006) rotate(180) scale(69.432)">
<stop stop-color="#1F7DF1"/>
<stop offset="0.73" stop-color="#1F7DF1" stop-opacity="0"/>
</radialGradient>
<radialGradient id="paint9_radial" cx="0" cy="0" r="1" gradientUnits="userSpaceOnUse" gradientTransform="translate(420.981 94.41) rotate(-122.735) scale(54.3631 73.2364)">
<stop stop-color="#4DC2A1"/>
<stop offset="0.27" stop-color="#4DC2A1" stop-opacity="0.67"/>
<stop offset="0.58" stop-color="#4DC2A1" stop-opacity="0.31"/>
<stop offset="0.81" stop-color="#4DC2A1" stop-opacity="0.09"/>
<stop offset="0.93" stop-color="#4DC2A1" stop-opacity="0"/>
</radialGradient>
<radialGradient id="paint10_radial" cx="0" cy="0" r="1" gradientUnits="userSpaceOnUse" gradientTransform="translate(414.678 37.1439) scale(69.432)">
<stop offset="0.17" stop-color="#F05E56"/>
<stop offset="0.22" stop-color="#F05E56" stop-opacity="0.96"/>
<stop offset="0.31" stop-color="#F05E56" stop-opacity="0.84"/>
<stop offset="0.42" stop-color="#F05E56" stop-opacity="0.65"/>
<stop offset="0.56" stop-color="#F05E56" stop-opacity="0.38"/>
<stop offset="0.72" stop-color="#F05E56" stop-opacity="0.04"/>
<stop offset="0.74" stop-color="#F05E56" stop-opacity="0"/>
</radialGradient>
<radialGradient id="paint11_radial" cx="0" cy="0" r="1" gradientUnits="userSpaceOnUse" gradientTransform="translate(450.645 13.8269) rotate(57.2648) scale(54.3631 73.2364)">
<stop stop-color="#EA66CB"/>
<stop offset="0.02" stop-color="#EA66CB" stop-opacity="0.96"/>
<stop offset="0.16" stop-color="#EA66CB" stop-opacity="0.71"/>
<stop offset="0.29" stop-color="#EA66CB" stop-opacity="0.49"/>
<stop offset="0.43" stop-color="#EA66CB" stop-opacity="0.32"/>
<stop offset="0.56" stop-color="#EA66CB" stop-opacity="0.18"/>
<stop offset="0.68" stop-color="#EA66CB" stop-opacity="0.08"/>
<stop offset="0.8" stop-color="#EA66CB" stop-opacity="0.02"/>
<stop offset="0.9" stop-color="#EA66CB" stop-opacity="0"/>
</radialGradient>
<linearGradient id="paint12_linear" x1="520.941" y1="144.706" x2="520.941" y2="260.47" gradientUnits="userSpaceOnUse">
<stop stop-color="#FE9D02"/>
<stop offset="1" stop-color="#F7701D"/>
</linearGradient>
<linearGradient id="paint13_linear" x1="549.882" y1="79.5881" x2="549.882" y2="108.53" gradientUnits="userSpaceOnUse">
<stop stop-color="#1D6FF2"/>
<stop offset="1" stop-color="#1AC8FC"/>
</linearGradient>
</defs>
</svg>
